<svg width="56" height="56" viewBox="0 0 56 56" fill="none" xmlns="http://www.w3.org/2000/svg">
<g clip-path="url(#clip0_18280_336)">
<path d="M37.625 23.625H21.875C21.6429 23.625 21.4204 23.5328 21.2563 23.3687C21.0922 23.2046 21 22.9821 21 22.75C21 22.5179 21.0922 22.2954 21.2563 22.1313C21.4204 21.9672 21.6429 21.875 21.875 21.875H37.625C37.8571 21.875 38.0796 21.9672 38.2437 22.1313C38.4078 22.2954 38.5 22.5179 38.5 22.75C38.5 22.9821 38.4078 23.2046 38.2437 23.3687C38.0796 23.5328 37.8571 23.625 37.625 23.625ZM31.5 18.375H21.875C21.6429 18.375 21.4204 18.2828 21.2563 18.1187C21.0922 17.9546 21 17.7321 21 17.5C21 17.2679 21.0922 17.0454 21.2563 16.8813C21.4204 16.7172 21.6429 16.625 21.875 16.625H31.5C31.7321 16.625 31.9546 16.7172 32.1187 16.8813C32.2828 17.0454 32.375 17.2679 32.375 17.5C32.375 17.7321 32.2828 17.9546 32.1187 18.1187C31.9546 18.2828 31.7321 18.375 31.5 18.375ZM32.375 36.75H21.875C21.6429 36.75 21.4204 36.6578 21.2563 36.4937C21.0922 36.3296 21 36.1071 21 35.875C21 35.6429 21.0922 35.4204 21.2563 35.2563C21.4204 35.0922 21.6429 35 21.875 35H32.375C32.6071 35 32.8296 35.0922 32.9937 35.2563C33.1578 35.4204 33.25 35.6429 33.25 35.875C33.25 36.1071 33.1578 36.3296 32.9937 36.4937C32.8296 36.6578 32.6071 36.75 32.375 36.75ZM31.5 31.5H21.875C21.6429 31.5 21.4204 31.4078 21.2563 31.2437C21.0922 31.0796 21 30.8571 21 30.625C21 30.3929 21.0922 30.1704 21.2563 30.0063C21.4204 29.8422 21.6429 29.75 21.875 29.75H31.5C31.7321 29.75 31.9546 29.8422 32.1187 30.0063C32.2828 30.1704 32.375 30.3929 32.375 30.625C32.375 30.8571 32.2828 31.0796 32.1187 31.2437C31.9546 31.4078 31.7321 31.5 31.5 31.5ZM28 49.875H21.875C21.6429 49.875 21.4204 49.7828 21.2563 49.6187C21.0922 49.4546 21 49.2321 21 49C21 48.7679 21.0922 48.5454 21.2563 48.3813C21.4204 48.2172 21.6429 48.125 21.875 48.125H28C28.2321 48.125 28.4546 48.2172 28.6187 48.3813C28.7828 48.5454 28.875 48.7679 28.875 49C28.875 49.2321 28.7828 49.4546 28.6187 49.6187C28.4546 49.7828 28.2321 49.875 28 49.875ZM28 44.625H21.875C21.6429 44.625 21.4204 44.5328 21.2563 44.3687C21.0922 44.2046 21 43.9821 21 43.75C21 43.5179 21.0922 43.2954 21.2563 43.1313C21.4204 42.9672 21.6429 42.875 21.875 42.875H28C28.2321 42.875 28.4546 42.9672 28.6187 43.1313C28.7828 43.2954 28.875 43.5179 28.875 43.75C28.875 43.9821 28.7828 44.2046 28.6187 44.3687C28.4546 44.5328 28.2321 44.625 28 44.625ZM16.625 25.375H7.875C7.64294 25.375 7.42038 25.2828 7.25628 25.1187C7.09219 24.9546 7 24.7321 7 24.5V15.75C7 15.5179 7.09219 15.2954 7.25628 15.1313C7.42038 14.9672 7.64294 14.875 7.875 14.875H12.25C12.4821 14.875 12.7046 14.9672 12.8687 15.1313C13.0328 15.2954 13.125 15.5179 13.125 15.75C13.125 15.9821 13.0328 16.2046 12.8687 16.3687C12.7046 16.5328 12.4821 16.625 12.25 16.625H8.75V23.625H15.75V21C15.75 20.7679 15.8422 20.5454 16.0063 20.3813C16.1704 20.2172 16.3929 20.125 16.625 20.125C16.8571 20.125 17.0796 20.2172 17.2437 20.3813C17.4078 20.5454 17.5 20.7679 17.5 21V24.5C17.5 24.7321 17.4078 24.9546 17.2437 25.1187C17.0796 25.2828 16.8571 25.375 16.625 25.375Z" fill="white"/>
<path d="M12.25 22.75C12.1351 22.7501 12.0212 22.7275 11.915 22.6836C11.8088 22.6397 11.7123 22.5753 11.6309 22.4941L9.88094 20.7441C9.71675 20.5799 9.62451 20.3572 9.62451 20.125C9.62451 19.8928 9.71675 19.6701 9.88094 19.5059C10.0451 19.3417 10.2678 19.2495 10.5 19.2495C10.7322 19.2495 10.9549 19.3417 11.1191 19.5059L12.1144 20.5012L15.0216 16.1394C15.1504 15.9462 15.3506 15.8121 15.5783 15.7665C15.806 15.721 16.0424 15.7678 16.2356 15.8966C16.4288 16.0253 16.5629 16.2256 16.6085 16.4533C16.654 16.681 16.6072 16.9174 16.4784 17.1106L12.9784 22.3606C12.9066 22.4683 12.8117 22.5587 12.7007 22.6252C12.5897 22.6918 12.4652 22.7329 12.3364 22.7456C12.3077 22.7487 12.2789 22.7501 12.25 22.75ZM16.625 38.5H7.875C7.64294 38.5 7.42038 38.4078 7.25628 38.2437C7.09219 38.0796 7 37.8571 7 37.625V28.875C7 28.6429 7.09219 28.4204 7.25628 28.2563C7.42038 28.0922 7.64294 28 7.875 28H12.25C12.4821 28 12.7046 28.0922 12.8687 28.2563C13.0328 28.4204 13.125 28.6429 13.125 28.875C13.125 29.1071 13.0328 29.3296 12.8687 29.4937C12.7046 29.6578 12.4821 29.75 12.25 29.75H8.75V36.75H15.75V34.125C15.75 33.8929 15.8422 33.6704 16.0063 33.5063C16.1704 33.3422 16.3929 33.25 16.625 33.25C16.8571 33.25 17.0796 33.3422 17.2437 33.5063C17.4078 33.6704 17.5 33.8929 17.5 34.125V37.625C17.5 37.8571 17.4078 38.0796 17.2437 38.2437C17.0796 38.4078 16.8571 38.5 16.625 38.5Z" fill="white"/>
<path d="M12.25 35.8755C12.1351 35.8756 12.0212 35.853 11.915 35.8091C11.8088 35.7652 11.7123 35.7008 11.6309 35.6195L9.88094 33.8695C9.71675 33.7054 9.62451 33.4827 9.62451 33.2505C9.62451 33.0183 9.71675 32.7956 9.88094 32.6314C10.0451 32.4672 10.2678 32.375 10.5 32.375C10.7322 32.375 10.9549 32.4672 11.1191 32.6314L12.1144 33.6267L15.0216 29.2649C15.1504 29.0717 15.3506 28.9375 15.5783 28.892C15.806 28.8465 16.0424 28.8932 16.2356 29.022C16.4288 29.1508 16.5629 29.3511 16.6085 29.5788C16.654 29.8065 16.6072 30.0429 16.4784 30.2361L12.9784 35.4861C12.9066 35.5938 12.8117 35.6842 12.7007 35.7507C12.5897 35.8173 12.4652 35.8584 12.3364 35.8711C12.3077 35.8742 12.2789 35.8756 12.25 35.8755ZM16.625 51.6255H7.875C7.64294 51.6255 7.42038 51.5333 7.25628 51.3692C7.09219 51.2051 7 50.9825 7 50.7505V42.0005C7 41.7684 7.09219 41.5459 7.25628 41.3818C7.42038 41.2177 7.64294 41.1255 7.875 41.1255H12.25C12.4821 41.1255 12.7046 41.2177 12.8687 41.3818C13.0328 41.5459 13.125 41.7684 13.125 42.0005C13.125 42.2325 13.0328 42.4551 12.8687 42.6192C12.7046 42.7833 12.4821 42.8755 12.25 42.8755H8.75V49.8755H15.75V47.2505C15.75 47.0184 15.8422 46.7959 16.0063 46.6318C16.1704 46.4677 16.3929 46.3755 16.625 46.3755C16.8571 46.3755 17.0796 46.4677 17.2437 46.6318C17.4078 46.7959 17.5 47.0184 17.5 47.2505V50.7505C17.5 50.9825 17.4078 51.2051 17.2437 51.3692C17.0796 51.5333 16.8571 51.6255 16.625 51.6255Z" fill="white"/>
<path d="M12.25 49C12.1351 49.0001 12.0212 48.9775 11.915 48.9336C11.8088 48.8897 11.7123 48.8253 11.6309 48.7441L9.88094 46.9941C9.71675 46.8299 9.62451 46.6072 9.62451 46.375C9.62451 46.1428 9.71675 45.9201 9.88094 45.7559C10.0451 45.5918 10.2678 45.4995 10.5 45.4995C10.7322 45.4995 10.9549 45.5918 11.1191 45.7559L12.1144 46.7513L15.0216 42.3894C15.1504 42.1962 15.3506 42.0621 15.5783 42.0165C15.806 41.971 16.0424 42.0178 16.2356 42.1466C16.4288 42.2754 16.5629 42.4756 16.6085 42.7033C16.654 42.931 16.6072 43.1674 16.4784 43.3606L12.9784 48.6106C12.9066 48.7183 12.8117 48.8087 12.7007 48.8753C12.5896 48.9418 12.4652 48.9829 12.3364 48.9956C12.3077 48.9987 12.2789 49.0002 12.25 49ZM42.875 56C41.1003 56 39.3503 55.5847 37.7648 54.7874C36.1794 53.9901 34.8024 52.8329 33.7441 51.4084C32.6858 49.9838 31.9755 48.3314 31.67 46.5832C31.3645 44.8351 31.4723 43.0397 31.9847 41.3406C32.4971 39.6415 33.3999 38.0859 34.621 36.7982C35.8421 35.5104 37.3476 34.5262 39.017 33.9243C40.6865 33.3224 42.4736 33.1194 44.2356 33.3316C45.9975 33.5439 47.6853 34.1654 49.1641 35.1466C49.2845 35.2264 49.3833 35.3348 49.4516 35.4621C49.5199 35.5894 49.5557 35.7316 49.5556 35.8761C49.5555 36.0345 49.5125 36.1898 49.431 36.3256C49.3496 36.4614 49.2328 36.5726 49.0931 36.6472C48.9535 36.7219 48.7962 36.7572 48.638 36.7495C48.4798 36.7418 48.3267 36.6913 48.195 36.6034C46.2634 35.3243 43.9346 34.7864 41.6377 35.0889C39.3408 35.3913 37.2306 36.5137 35.6959 38.2493C34.1613 39.9848 33.3057 42.2166 33.2867 44.5332C33.2677 46.8499 34.0866 49.0953 35.5926 50.8558C37.0985 52.6163 39.1901 53.7732 41.4817 54.1132C43.7733 54.4533 46.1106 53.9537 48.063 52.7064C50.0153 51.4591 51.451 49.5482 52.1056 47.3259C52.7602 45.1036 52.5895 42.7195 51.625 40.6131C51.5718 40.4991 51.5442 40.3748 51.5441 40.2489C51.544 40.0493 51.6122 39.8557 51.7374 39.7002C51.8625 39.5447 52.0371 39.4366 52.2321 39.394C52.4271 39.3513 52.6308 39.3766 52.8095 39.4657C52.9881 39.5547 53.1309 39.7022 53.2142 39.8836C54.0089 41.6165 54.3552 43.5214 54.2215 45.4231C54.0877 47.3249 53.4781 49.1625 52.4487 50.7672C51.4192 52.3718 50.003 53.6919 48.3302 54.6063C46.6573 55.5207 44.7814 55.9999 42.875 56Z" fill="white"/>
<path d="M41.125 50.7502C41.0101 50.7503 40.8962 50.7278 40.79 50.6839C40.6838 50.6399 40.5873 50.5755 40.5059 50.4943L37.0059 46.9943C36.8418 46.8301 36.7495 46.6074 36.7495 46.3752C36.7495 46.143 36.8418 45.9204 37.0059 45.7562C37.1701 45.592 37.3928 45.4997 37.625 45.4997C37.8572 45.4997 38.0799 45.592 38.2441 45.7562L41.0528 48.5627L47.4414 40.5784C47.5864 40.3971 47.7976 40.2808 48.0283 40.2552C48.2591 40.2295 48.4906 40.2966 48.6719 40.4416C48.8532 40.5867 48.9694 40.7978 48.9951 41.0286C49.0207 41.2593 48.9536 41.4908 48.8086 41.6721L41.8086 50.4221C41.7315 50.5182 41.6351 50.5971 41.5257 50.6536C41.4162 50.7101 41.2961 50.743 41.1731 50.7502H41.125ZM32.375 56.0002H4.375C3.67881 56.0002 3.01113 55.7237 2.51884 55.2314C2.02656 54.7391 1.75 54.0714 1.75 53.3752V11.3752C1.75 10.679 2.02656 10.0114 2.51884 9.51908C3.01113 9.02679 3.67881 8.75023 4.375 8.75023H7C7.23206 8.75023 7.45462 8.84242 7.61872 9.00651C7.78281 9.17061 7.875 9.39317 7.875 9.62523C7.875 9.8573 7.78281 10.0799 7.61872 10.244C7.45462 10.408 7.23206 10.5002 7 10.5002H4.375C4.14294 10.5002 3.92038 10.5924 3.75628 10.7565C3.59219 10.9206 3.5 11.1432 3.5 11.3752V53.3752C3.5 53.6073 3.59219 53.8299 3.75628 53.994C3.92038 54.158 4.14294 54.2502 4.375 54.2502H32.375C32.6071 54.2502 32.8296 54.3424 32.9937 54.5065C33.1578 54.6706 33.25 54.8932 33.25 55.1252C33.25 55.3573 33.1578 55.5799 32.9937 55.744C32.8296 55.908 32.6071 56.0002 32.375 56.0002ZM42.875 30.6252C42.6429 30.6252 42.4204 30.533 42.2563 30.369C42.0922 30.2049 42 29.9823 42 29.7502V11.3752C42 11.1432 41.9078 10.9206 41.7437 10.7565C41.5796 10.5924 41.3571 10.5002 41.125 10.5002H38.5C38.2679 10.5002 38.0454 10.408 37.8813 10.244C37.7172 10.0799 37.625 9.8573 37.625 9.62523C37.625 9.39317 37.7172 9.17061 37.8813 9.00651C38.0454 8.84242 38.2679 8.75023 38.5 8.75023H41.125C41.8212 8.75023 42.4889 9.02679 42.9812 9.51908C43.4734 10.0114 43.75 10.679 43.75 11.3752V29.7502C43.75 29.9823 43.6578 30.2049 43.4937 30.369C43.3296 30.533 43.1071 30.6252 42.875 30.6252ZM26.7553 4.37523C26.5852 4.37528 26.4188 4.32575 26.2764 4.2327C26.134 4.13966 26.0218 4.00713 25.9536 3.85133C25.6826 3.22688 25.2349 2.69526 24.6658 2.32184C24.0966 1.94841 23.4307 1.74947 22.75 1.74947C22.0693 1.74947 21.4034 1.94841 20.8342 2.32184C20.2651 2.69526 19.8174 3.22688 19.5464 3.85133C19.4533 4.06395 19.2795 4.23089 19.0633 4.31539C18.8471 4.3999 18.6062 4.39507 18.3936 4.30195C18.181 4.20884 18.014 4.03507 17.9295 3.81887C17.845 3.60268 17.8499 3.36177 17.943 3.14914C18.3507 2.21328 19.0227 1.41678 19.8766 0.857382C20.7306 0.29798 21.7292 0 22.75 0C23.7708 0 24.7694 0.29798 25.6234 0.857382C26.4773 1.41678 27.1493 2.21328 27.557 3.14914C27.6154 3.28233 27.6396 3.42796 27.6275 3.57287C27.6155 3.71778 27.5675 3.85739 27.4879 3.97909C27.4083 4.10079 27.2997 4.20075 27.1718 4.26991C27.0438 4.33908 26.9007 4.37527 26.7553 4.37523ZM34.125 12.2502H11.375C11.1429 12.2502 10.9204 12.158 10.7563 11.994C10.5922 11.8299 10.5 11.6073 10.5 11.3752V8.75023C10.5 8.05404 10.7766 7.38636 11.2688 6.89408C11.7611 6.40179 12.4288 6.12523 13.125 6.12523H18.375C18.6071 6.12523 18.8296 6.21742 18.9937 6.38151C19.1578 6.54561 19.25 6.76817 19.25 7.00023C19.25 7.2323 19.1578 7.45486 18.9937 7.61895C18.8296 7.78305 18.6071 7.87523 18.375 7.87523H13.125C12.8929 7.87523 12.6704 7.96742 12.5063 8.13151C12.3422 8.29561 12.25 8.51817 12.25 8.75023V10.5002H33.25V8.75023C33.25 8.51817 33.1578 8.29561 32.9937 8.13151C32.8296 7.96742 32.6071 7.87523 32.375 7.87523H27.125C26.8929 7.87523 26.6704 7.78305 26.5063 7.61895C26.3422 7.45486 26.25 7.2323 26.25 7.00023C26.25 6.76817 26.3422 6.54561 26.5063 6.38151C26.6704 6.21742 26.8929 6.12523 27.125 6.12523H32.375C33.0712 6.12523 33.7389 6.40179 34.2312 6.89408C34.7234 7.38636 35 8.05404 35 8.75023V11.3752C35 11.6073 34.9078 11.8299 34.7437 11.994C34.5796 12.158 34.3571 12.2502 34.125 12.2502Z" fill="white"/>
</g>
<defs>
<clipPath id="clip0_18280_336">
<rect width="56" height="56" fill="white"/>
</clipPath>
</defs>
</svg>
