<svg width="56" height="56" viewBox="0 0 56 56" fill="none" xmlns="http://www.w3.org/2000/svg">
<g clip-path="url(#clip0_18280_481)">
<path d="M30.2671 5.59961C29.9728 5.60202 29.6838 5.67853 29.4269 5.82208C29.17 5.96562 28.9534 6.17158 28.7971 6.42094L22.6716 16.1024C22.5078 16.3516 22.4144 16.6404 22.4012 16.9382C22.388 17.2361 22.4555 17.5321 22.5966 17.7947C22.7378 18.0574 22.9473 18.277 23.2029 18.4305C23.4586 18.5839 23.751 18.6654 24.0492 18.6663H27.1227L26.7764 26.1796C26.7687 26.6537 26.9492 27.1115 27.2785 27.4527C27.6078 27.7938 28.0589 27.9905 28.5329 27.9996C28.8272 27.9972 29.1162 27.9207 29.3731 27.7771C29.63 27.6336 29.8466 27.4276 30.0029 27.1783L36.1256 17.5005C36.3216 17.2056 36.4187 16.8547 36.4 16.5C36.3803 16.0765 36.1977 15.6771 35.8903 15.385C35.583 15.093 35.1747 14.931 34.7508 14.9329H31.6773L32.0236 7.41961C32.0313 6.94552 31.8508 6.48771 31.5215 6.14654C31.1922 5.80537 30.7411 5.60869 30.2671 5.59961ZM34.3607 16.7996L28.6599 25.8091L29.0108 18.2341C29.0198 18.0515 28.9913 17.8689 28.9271 17.6976C28.8629 17.5264 28.7643 17.37 28.6375 17.2383C28.5034 17.0991 28.3426 16.9886 28.1648 16.9132C27.9869 16.8378 27.7956 16.7992 27.6024 16.7996H24.4393L30.1401 7.79014L29.7892 15.3651C29.7705 15.7347 29.9059 16.0949 30.1625 16.3609C30.4332 16.6419 30.8065 16.7996 31.1967 16.7996H34.3607ZM55.6267 36.2465C55.2444 35.5644 54.6077 35.0614 53.8556 34.8475C53.1035 34.6336 52.2973 34.7262 51.6133 35.1051L50.1153 35.9516L50.0537 35.8984C49.4236 35.2717 48.6281 34.8374 47.7602 34.6461C46.8923 34.4549 45.988 34.5147 45.1528 34.8185L37.8327 37.5952L19.6177 34.6515C18.0497 34.4013 16.4444 34.5553 14.9511 35.0976L11.1347 36.7431C10.9999 36.1177 10.6551 35.5574 10.1575 35.1552C9.65996 34.7531 9.03972 34.5335 8.4 34.5329H2.8C2.05739 34.5329 1.3452 34.8279 0.820101 35.353C0.294999 35.8781 0 36.5903 0 37.3329L0 50.3996C0 51.1422 0.294999 51.8544 0.820101 52.3795C1.3452 52.9046 2.05739 53.1996 2.8 53.1996H8.4C9.10814 53.1965 9.78879 52.9251 10.3049 52.4402C10.821 51.9553 11.1341 51.2929 11.1813 50.5863C11.3867 50.5825 11.5911 50.6115 11.7871 50.6712L30.7571 55.8045C31.4684 56.0172 32.2201 56.0579 32.9502 55.9234C33.6804 55.7888 34.3682 55.483 34.9571 55.0308L54.88 39.9976C55.4273 39.5632 55.8032 38.949 55.941 38.264C56.0789 37.579 55.9698 36.8673 55.6332 36.2549L55.6267 36.2465ZM45.7968 36.5676C46.2242 36.4148 46.6823 36.3677 47.1319 36.4304C47.5815 36.4932 48.0092 36.6639 48.3784 36.9279L42.8092 40.0769V40.0685C42.7569 39.9017 42.6897 39.7399 42.6085 39.5851C42.5852 39.5393 42.5609 39.4917 42.5348 39.4516C42.4574 39.3156 42.3687 39.1864 42.2697 39.0652C42.2557 39.0475 42.2445 39.0279 42.2296 39.0111C42.1174 38.8828 41.9941 38.7647 41.8609 38.6583C41.818 38.6219 41.7732 38.5892 41.7275 38.5556C41.6113 38.4705 41.489 38.3941 41.3616 38.3269C41.3355 38.3139 41.314 38.2943 41.2869 38.2812L45.7968 36.5676ZM9.33333 50.3996C9.33333 50.6471 9.235 50.8845 9.05997 51.0596C8.88493 51.2346 8.64754 51.3329 8.4 51.3329H2.8C2.55246 51.3329 2.31507 51.2346 2.14003 51.0596C1.965 50.8845 1.86667 50.6471 1.86667 50.3996V37.3329C1.86667 37.0854 1.965 36.848 2.14003 36.673C2.31507 36.4979 2.55246 36.3996 2.8 36.3996H8.4C8.64754 36.3996 8.88493 36.4979 9.05997 36.673C9.235 36.848 9.33333 37.0854 9.33333 37.3329V38.0796C9.33333 38.1011 9.324 38.1207 9.324 38.1412L9.33333 49.8163V50.3996ZM53.7385 38.5211L33.8203 53.5477C33.4623 53.8224 33.0439 54.0076 32.5998 54.0878C32.1558 54.168 31.699 54.1409 31.2676 54.0088L12.3079 48.8755C11.9568 48.7673 11.5916 48.7126 11.2243 48.7131H11.2V38.7479L15.6315 36.8336C16.8126 36.4111 18.0814 36.2939 19.32 36.4929L40.1501 39.8595C40.6737 39.9453 41.0601 40.3952 41.0667 40.9263C41.0657 41.0672 41.0387 41.2063 40.9855 41.3379C40.9344 41.4664 40.8582 41.5835 40.7615 41.6823C40.5552 41.8876 40.2761 42.0043 39.984 42.0061H25.9821L22.4 41.9996C22.1525 41.9996 21.9151 42.0979 21.74 42.273C21.565 42.448 21.4667 42.6854 21.4667 42.9329C21.4667 43.1805 21.565 43.4179 21.74 43.5929C21.9151 43.7679 22.1525 43.8663 22.4 43.8663L25.7311 43.8756L31.1612 47.2459C31.5831 47.4829 32.0591 47.6071 32.5425 47.608C33.0167 47.608 33.4833 47.4867 33.8977 47.2552L39.8851 43.8756H39.9784C40.7606 43.8742 41.5107 43.5647 42.0663 43.0141C42.2501 42.8247 42.4069 42.61 42.5329 42.3776L50.4 37.9331H50.4047L52.5196 36.7375C52.7564 36.6079 53.0331 36.5712 53.2955 36.6346C53.5579 36.698 53.7873 36.8569 53.9388 37.0803C54.0904 37.3037 54.1533 37.5755 54.1152 37.8428C54.0771 38.1101 53.9409 38.3536 53.7329 38.5257L53.7385 38.5211ZM32.9849 45.6256C32.8506 45.7005 32.6996 45.7408 32.5458 45.7427C32.392 45.7447 32.2401 45.7083 32.1039 45.6368L29.2647 43.8747H36.0864L32.9849 45.6256Z" fill="white"/>
<path d="M6.5334 38.2665H4.66673C4.4192 38.2665 4.1818 38.3649 4.00677 38.5399C3.83173 38.7149 3.7334 38.9523 3.7334 39.1999C3.7334 39.4474 3.83173 39.6848 4.00677 39.8598C4.1818 40.0349 4.4192 40.1332 4.66673 40.1332H6.5334C6.78093 40.1332 7.01833 40.0349 7.19336 39.8598C7.3684 39.6848 7.46673 39.4474 7.46673 39.1999C7.46673 38.9523 7.3684 38.7149 7.19336 38.5399C7.01833 38.3649 6.78093 38.2665 6.5334 38.2665ZM6.5334 47.5999H4.66673C4.4192 47.5999 4.1818 47.6982 4.00677 47.8732C3.83173 48.0483 3.7334 48.2857 3.7334 48.5332C3.7334 48.7807 3.83173 49.0181 4.00677 49.1932C4.1818 49.3682 4.4192 49.4665 4.66673 49.4665H6.5334C6.78093 49.4665 7.01833 49.3682 7.19336 49.1932C7.3684 49.0181 7.46673 48.7807 7.46673 48.5332C7.46673 48.2857 7.3684 48.0483 7.19336 47.8732C7.01833 47.6982 6.78093 47.5999 6.5334 47.5999ZM39.2001 15.636C39.343 15.6373 39.4842 15.6053 39.6126 15.5427C41.4513 14.6093 43.1126 13.3643 44.5257 11.8635C44.6957 11.6874 44.7898 11.4517 44.7876 11.207C44.7855 10.9622 44.6873 10.7282 44.5143 10.5551C44.3413 10.3821 44.1072 10.2839 43.8624 10.2818C43.6177 10.2796 43.382 10.3737 43.2059 10.5437C41.9349 11.8983 40.4395 13.0233 38.7857 13.8692C38.5949 13.9616 38.4413 14.1161 38.3501 14.3074C38.2588 14.4986 38.2354 14.7153 38.2836 14.9216C38.3318 15.128 38.4488 15.3118 38.6154 15.4428C38.782 15.5738 38.9882 15.6443 39.2001 15.6425V15.636Z" fill="white"/>
<path d="M20.5183 20.4977C20.6409 20.5005 20.7628 20.4792 20.8771 20.4349C20.9915 20.3906 21.0959 20.3242 21.1846 20.2395C21.2733 20.1548 21.3444 20.0535 21.3939 19.9414C21.4434 19.8292 21.4703 19.7084 21.4731 19.5858C21.476 19.4633 21.4546 19.3413 21.4103 19.227C21.366 19.1127 21.2996 19.0082 21.2149 18.9196C21.1303 18.8309 21.029 18.7598 20.9168 18.7103C20.8046 18.6608 20.6838 18.6339 20.5613 18.631C18.0302 18.4802 15.5219 18.0638 13.0778 17.3888C8.1638 16.1082 5.84447 14.3265 3.49807 11.6814C3.33395 11.4958 3.10281 11.3829 2.85549 11.3677C2.60816 11.3525 2.36492 11.4361 2.17927 11.6002C1.99362 11.7644 1.88076 11.9955 1.86554 12.2428C1.85031 12.4901 1.93395 12.7334 2.09807 12.919C4.66237 15.9637 8.13551 18.1058 12.0073 19.0305C12.4702 22.5834 14.3012 25.8155 17.1107 28.039C21.0466 31.1228 24.9293 32.6665 28.7961 32.6665C34.9738 32.6665 41.1161 28.7213 47.3367 20.8029C54.9733 11.0832 56.2435 5.25077 55.9645 2.06063C55.9253 1.64712 55.7735 1.25225 55.5257 0.918888C55.2779 0.58553 54.9435 0.326423 54.5589 0.169701C54.179 0.014064 53.7638 -0.034212 53.3583 0.0301453C52.9529 0.0945026 52.573 0.269019 52.2601 0.534635C50.5231 2.08474 48.4209 3.16836 46.1506 3.6839C43.8803 4.19944 41.5163 4.13 39.2802 3.4821C30.2689 1.04983 21.6654 -0.486432 15.4802 7.3853C14.9415 8.05806 14.4559 8.77173 14.0279 9.51983C13.179 10.8238 12.5485 12.2576 12.1613 13.7646C12.1306 13.8834 12.1237 14.007 12.1408 14.1285C12.158 14.2499 12.1989 14.3668 12.2612 14.4725C12.3235 14.5781 12.406 14.6705 12.504 14.7442C12.602 14.818 12.7136 14.8717 12.8323 14.9024C13.0722 14.9643 13.3268 14.9283 13.5402 14.8025C13.6458 14.7402 13.7382 14.6576 13.8119 14.5596C13.8857 14.4616 13.9394 14.3501 13.9701 14.2313C14.3126 12.9153 14.8642 11.6609 15.6043 10.5194C15.9991 9.8269 16.4462 9.1661 16.9418 8.54263C21.9351 2.19037 28.4741 2.49837 38.793 5.2853C41.3222 6.01797 43.996 6.09651 46.5638 5.51357C49.1316 4.93062 51.5094 3.70528 53.4743 1.95237C53.5252 1.90922 53.5871 1.88112 53.653 1.87123C53.719 1.86134 53.7864 1.87004 53.8477 1.89637C53.9886 1.95237 54.0875 2.08117 54.1025 2.23237C54.305 4.5657 53.5061 9.92304 45.8658 19.6512C33.4133 35.4898 24.1518 31.1844 18.2653 26.5709C16.038 24.8094 14.5149 22.3087 13.9719 19.5214C16.1065 20.0441 18.2839 20.3708 20.4773 20.4968L20.5183 20.4977Z" fill="white"/>
</g>
<defs>
<clipPath id="clip0_18280_481">
<rect width="56" height="56" fill="white"/>
</clipPath>
</defs>
</svg>
