<svg width="56" height="56" viewBox="0 0 56 56" fill="none" xmlns="http://www.w3.org/2000/svg">
<path d="M22.3475 31.0536C20.0787 31.055 17.8359 30.5708 15.7698 29.6336C13.7037 28.6964 11.8621 27.3278 10.3687 25.6198C9.87345 25.0561 9.6003 24.3314 9.6003 23.5811C9.6003 22.8307 9.87345 22.106 10.3687 21.5423C16.415 14.3498 28.2712 14.3498 34.3175 21.5423C34.8117 22.1083 35.084 22.8341 35.084 23.5854C35.084 24.3368 34.8117 25.0626 34.3175 25.6286C32.8247 27.3343 30.9842 28.7008 28.9196 29.6365C26.855 30.5722 24.6142 31.0554 22.3475 31.0536ZM33.005 22.6886C27.6675 16.3011 17.0187 16.3011 11.6812 22.6886C11.4746 22.9333 11.3612 23.2433 11.3612 23.5636C11.3612 23.8839 11.4746 24.1938 11.6812 24.4386C13.0117 25.9571 14.6511 27.1739 16.4898 28.0076C18.3286 28.8413 20.3242 29.2725 22.3431 29.2725C24.362 29.2725 26.3576 28.8413 28.1964 28.0076C30.0351 27.1739 31.6746 25.9571 33.005 24.4386C33.2133 24.1946 33.3277 23.8844 33.3277 23.5636C33.3277 23.2428 33.2133 22.9325 33.005 22.6886Z" fill="white"/>
<path d="M22.3473 27.7811C16.8261 27.6061 16.8348 19.6086 22.3473 19.4336C27.8598 19.6086 27.8598 27.6061 22.3473 27.7811ZM22.3473 21.1836C21.7045 21.1836 21.088 21.439 20.6335 21.8935C20.1789 22.348 19.9236 22.9645 19.9236 23.6073C19.9236 24.2502 20.1789 24.8667 20.6335 25.3212C21.088 25.7757 21.7045 26.0311 22.3473 26.0311C22.9901 26.0311 23.6066 25.7757 24.0612 25.3212C24.5157 24.8667 24.7711 24.2502 24.7711 23.6073C24.7711 22.9645 24.5157 22.348 24.0612 21.8935C23.6066 21.439 22.9901 21.1836 22.3473 21.1836Z" fill="white"/>
<path d="M4.75993 23.625C5.73117 0.28875 38.9637 0.28 39.9262 23.625C39.9286 25.4944 39.6332 27.3523 39.0512 29.1287L41.8512 31.9288C42.0972 32.1728 42.2925 32.4631 42.4258 32.783C42.559 33.1029 42.6277 33.446 42.6277 33.7925C42.6277 34.139 42.559 34.4821 42.4258 34.802C42.2925 35.1219 42.0972 35.4122 41.8512 35.6562L40.8449 36.6625L50.3387 44.9837C50.6109 45.2202 50.8315 45.5103 50.9867 45.8358C51.1419 46.1614 51.2283 46.5154 51.2407 46.8758C51.253 47.2362 51.1909 47.5953 51.0583 47.9307C50.9257 48.266 50.7254 48.5705 50.4699 48.825L47.5649 51.73C47.3125 51.9829 47.0111 52.1816 46.6793 52.3139C46.3474 52.4462 45.992 52.5094 45.6348 52.4996C45.2776 52.4898 44.9262 52.4071 44.6021 52.2567C44.278 52.1064 43.988 51.8914 43.7499 51.625L35.3762 42.0875L34.3699 43.0938C34.1261 43.3385 33.8363 43.5326 33.5172 43.6651C33.1981 43.7976 32.856 43.8658 32.5106 43.8658C32.1651 43.8658 31.823 43.7976 31.5039 43.6651C31.1848 43.5326 30.8951 43.3385 30.6512 43.0938L27.8424 40.2938C16.7999 44.17 4.54993 35.35 4.75993 23.625ZM22.3474 7.77875C18.1463 7.78107 14.118 9.4516 11.1481 12.4231C8.17824 15.3946 6.50993 19.4238 6.50993 23.625C7.38493 44.625 37.3099 44.625 38.1762 23.625C38.1762 19.4253 36.5091 15.3974 33.5411 12.4262C30.5731 9.45495 26.5471 7.78339 22.3474 7.77875ZM45.0362 50.4525C45.1182 50.5427 45.2182 50.6148 45.3297 50.6642C45.4412 50.7135 45.5617 50.739 45.6837 50.739C45.8056 50.739 45.9262 50.7135 46.0377 50.6642C46.1492 50.6148 46.2492 50.5427 46.3312 50.4525L49.2274 47.5912C49.3162 47.5093 49.3871 47.4099 49.4356 47.2992C49.4841 47.1885 49.5091 47.069 49.5091 46.9481C49.5091 46.8273 49.4841 46.7078 49.4356 46.5971C49.3871 46.4864 49.3162 46.3869 49.2274 46.305L39.6024 37.8787L36.6362 40.8537L45.0362 50.4525ZM31.9112 41.86C31.9927 41.9433 32.09 42.0096 32.1974 42.0548C32.3049 42.1 32.4202 42.1233 32.5368 42.1233C32.6534 42.1233 32.7687 42.1 32.8762 42.0548C32.9836 42.0096 33.0809 41.9433 33.1624 41.86L40.6174 34.3963C40.7008 34.3148 40.767 34.2174 40.8122 34.11C40.8574 34.0026 40.8807 33.8872 40.8807 33.7706C40.8807 33.6541 40.8574 33.5387 40.8122 33.4312C40.767 33.3238 40.7008 33.2265 40.6174 33.145L38.3512 30.8787C36.5815 34.7527 33.4751 37.8591 29.6012 39.6287L31.9112 41.86ZM5.63493 35.805C5.86699 35.805 6.08955 35.8972 6.25364 36.0613C6.41774 36.2254 6.50993 36.4479 6.50993 36.68V41.3C6.50993 41.4764 6.57999 41.6455 6.7047 41.7702C6.82941 41.8949 6.99856 41.965 7.17493 41.965H11.7949C12.027 41.965 12.2495 42.0572 12.4136 42.2213C12.5777 42.3854 12.6699 42.6079 12.6699 42.84C12.6699 43.0721 12.5777 43.2946 12.4136 43.4587C12.2495 43.6228 12.027 43.715 11.7949 43.715H7.17493C6.53514 43.7127 5.92221 43.4575 5.46981 43.0051C5.01741 42.5527 4.76223 41.9398 4.75993 41.3V36.68C4.75993 36.4479 4.85212 36.2254 5.01621 36.0613C5.18031 35.8972 5.40286 35.805 5.63493 35.805ZM39.0512 11.375C38.8191 11.375 38.5966 11.2828 38.4325 11.1187C38.2684 10.9546 38.1762 10.7321 38.1762 10.5V5.915C38.1762 5.82767 38.159 5.7412 38.1256 5.66052C38.0921 5.57983 38.0432 5.50653 37.9814 5.44477C37.9197 5.38302 37.8463 5.33404 37.7657 5.30062C37.685 5.2672 37.5985 5.25 37.5112 5.25H32.8912C32.6591 5.25 32.4366 5.15781 32.2725 4.99372C32.1084 4.82962 32.0162 4.60706 32.0162 4.375C32.0162 4.14294 32.1084 3.92038 32.2725 3.75628C32.4366 3.59219 32.6591 3.5 32.8912 3.5H37.5112C38.151 3.50231 38.7639 3.75748 39.2163 4.20988C39.6687 4.66229 39.9239 5.27521 39.9262 5.915V10.5C39.9262 10.7321 39.834 10.9546 39.6699 11.1187C39.5058 11.2828 39.2832 11.375 39.0512 11.375Z" fill="white"/>
</svg>
