<svg width="56" height="56" viewBox="0 0 56 56" fill="none" xmlns="http://www.w3.org/2000/svg">
<g clip-path="url(#clip0_18280_486)">
<path d="M55.5625 33.4138L55.5187 33.3372C55.2562 32.8888 54.9718 32.4294 54.6984 31.9919C54.4906 31.6638 54.25 31.3466 54.0093 31.0513C53.8781 30.8872 53.7468 30.7122 53.6156 30.5372C53.4078 30.2528 53.1453 29.9794 52.7843 29.6622C52.5 29.4106 52.2156 29.1372 51.9531 28.8856C51.6359 28.5685 51.3406 28.295 51.0125 28.0435C50.7828 27.8685 50.5531 27.6825 50.3343 27.4747C49.8203 27.0044 49.3281 26.6325 48.825 26.3372C48.289 26.02 47.7422 25.7575 47.1843 25.5497C46.4515 25.2763 45.6968 24.9919 45.0078 24.62C44.7234 24.4669 44.45 24.3466 44.1656 24.2591C43.7937 24.1388 43.4328 24.0185 43.0828 23.8544C42.5578 23.6138 42.0547 23.2966 41.5734 22.9903L41.3875 22.87C41.114 22.695 40.8297 22.5091 40.6 22.2575C40.4687 22.1044 40.3265 21.9622 40.1843 21.82C39.8015 21.4263 39.4187 21.0216 39.1343 20.5403C39.1015 20.4747 39.0359 20.4419 38.9593 20.4419C38.8937 20.4419 38.8281 20.4856 38.7843 20.5513C38.7187 20.6606 38.6422 20.77 38.5765 20.8794C38.489 21.0216 38.3906 21.1638 38.3031 21.306C38.2593 21.3716 38.2156 21.4372 38.1718 21.4919C38.0953 21.6013 38.0187 21.7106 37.9531 21.831C37.8984 21.9294 37.8437 22.0169 37.8 22.1153C37.5812 22.5091 37.3515 22.9138 37.1437 23.3294C36.9468 23.7341 36.7281 24.1497 36.5203 24.5435C36.3453 24.8716 36.1703 25.2106 35.9953 25.5388C35.9406 25.6481 35.8859 25.7575 35.8203 25.8341C35.6343 26.0528 35.4812 26.2825 35.3281 26.5122L35.1312 26.8075C35.0109 26.9825 34.8906 27.1685 34.7812 27.3544C34.7593 27.3872 34.7375 27.42 34.7265 27.4528C34.639 27.595 34.5406 27.7481 34.4531 27.9013L34.3656 28.0325C34.1031 28.4481 33.8297 28.8747 33.5234 29.2575C33.3812 29.4325 33.239 29.6294 33.064 29.881C32.9437 30.0669 32.5062 30.581 32.539 30.7013C32.4078 30.92 32.2765 31.1388 32.1343 31.3685C32.025 31.5435 31.9156 31.7294 31.8172 31.9044L31.7734 31.97C31.5656 32.32 31.3468 32.67 31.1062 32.9981C30.8328 33.3591 30.5703 33.731 30.3187 34.1028C30.2093 34.2669 30.1 34.42 29.9797 34.5841C29.6953 34.956 29.3781 35.3388 29.0062 35.7325L28.7437 35.995C28.6015 36.1372 28.4593 36.2794 28.3281 36.4325C28.0328 36.7935 27.6937 37.1325 27.3656 37.4606L26.95 37.8763L26.9281 37.8981C26.8953 37.9419 26.8406 37.9856 26.8187 37.9856C26.6656 37.9856 26.5453 38.0403 26.414 38.0841C26.3703 38.106 26.3265 38.1169 26.2828 38.1278C26.0093 38.2153 25.7468 38.2591 25.4734 38.27C25.2328 38.27 24.9922 38.2372 24.7515 38.1716C24.6859 38.1497 24.6203 38.1388 24.5547 38.1169C24.5 38.095 24.4453 38.0841 24.3906 38.0622C24.3797 38.0622 24.3578 38.0513 24.3468 38.0513C24.2922 38.0513 24.2375 38.0731 24.2047 38.1169C24.1609 38.1606 24.139 38.2481 24.1828 38.3138L24.2156 38.3685C24.2593 38.456 24.3031 38.5435 24.3687 38.62C24.5656 38.8935 24.7734 39.1888 25.025 39.5169C25.2437 39.8122 25.4843 40.0419 25.7468 40.2278L25.9109 40.3372C26.2828 40.5888 26.6656 40.8513 27.0593 41.081C27.7812 41.4966 28.5687 41.8356 29.4 42.0981C29.564 42.1528 29.739 42.2075 29.9031 42.2622C30.439 42.4372 30.9968 42.6122 31.5547 42.7544C31.9812 42.8638 32.3968 43.0388 32.8015 43.2685C32.889 43.3122 32.9765 43.3669 33.064 43.4106C33.2828 43.531 33.5125 43.6622 33.7312 43.7935C34.1906 44.0669 34.7265 44.4169 35.1968 44.8544L35.3172 44.9747C35.514 45.1606 35.7218 45.3575 35.9406 45.5435C36.3781 45.9153 36.8047 46.3419 37.2531 46.845C37.4281 47.0419 37.6031 47.2278 37.7781 47.4138L37.8437 47.4794C38.0843 47.7419 38.325 48.0263 38.5656 48.3435C38.6968 48.5185 38.8281 48.7044 38.9703 48.8794C39.1781 49.1528 39.3968 49.4481 39.6047 49.7325L39.6812 49.831C39.8343 50.0278 39.9875 50.2466 40.1078 50.4544C40.3156 50.8263 40.5672 51.1872 40.7968 51.5372C40.9281 51.7231 41.0593 51.92 41.1797 52.1169C41.2125 52.1606 41.2343 52.2044 41.2672 52.2372C41.3109 52.2919 41.3656 52.3247 41.4312 52.3247C41.5187 52.3247 41.5843 52.27 41.6172 52.1935C41.6718 52.0185 41.7593 51.8653 41.8468 51.6903L41.8906 51.6138C41.9672 51.4606 42.0437 51.3185 42.1203 51.1653C42.3718 50.6731 42.6343 50.1591 42.8531 49.6341C42.9297 49.4591 43.0281 49.2841 43.1156 49.12L43.1265 49.0981C43.3234 48.7481 43.5312 48.3872 43.75 48.0153L43.7609 47.9935C43.8922 47.7747 44.0125 47.556 44.1547 47.3481C44.2531 47.206 44.3515 47.0638 44.4609 46.9325C44.5593 46.8013 44.6578 46.67 44.7453 46.5388C44.964 46.2325 45.1937 45.9153 45.4562 45.5872C45.7406 45.2372 46.0468 44.8872 46.3968 44.5153C46.9984 43.8591 47.4359 43.1044 47.6656 42.2513C47.6656 42.2403 47.6765 42.2185 47.6765 42.2075C47.7093 42.0981 47.9281 41.1575 47.9609 41.0372C47.9718 41.0044 47.9828 40.9716 47.9828 40.9497C48.0812 40.6653 48.1687 40.37 48.2453 40.0747C48.3109 39.8341 48.3875 39.5716 48.464 39.3419C48.5843 38.981 48.7593 38.6419 48.9672 38.3138L49.2953 37.8216C49.4484 37.6028 49.6125 37.3622 49.7547 37.1325C49.9953 36.7606 50.3015 36.4106 50.75 35.9731L50.8703 35.8528C51.089 35.645 51.3078 35.4263 51.5703 35.2513C51.8547 35.0653 52.15 34.8794 52.4672 34.6716C52.8609 34.431 53.3093 34.2888 53.7797 34.256C54.0859 34.2341 54.4031 34.1794 54.7203 34.1028C54.95 34.0481 55.1578 34.0153 55.3765 34.0153H55.4203C55.4859 34.0153 55.5625 34.0044 55.65 33.9606L55.7047 33.9278L55.7156 33.8622C55.7375 33.7091 55.639 33.545 55.5625 33.4138Z" fill="#FBF4E9"/>
<path d="M55.5625 33.4138L55.5187 33.3372C55.2562 32.8888 54.9718 32.4294 54.6984 31.9919C54.4906 31.6638 54.25 31.3466 54.0093 31.0513C53.8781 30.8872 53.7468 30.7122 53.6156 30.5372C53.4078 30.2528 53.1453 29.9794 52.7843 29.6622C52.5 29.4106 52.2156 29.1372 51.9531 28.8856C51.6359 28.5685 51.3406 28.295 51.0125 28.0435C50.7828 27.8685 50.5531 27.6825 50.3343 27.4747C49.8203 27.0044 49.3281 26.6325 48.825 26.3372C48.289 26.02 47.7422 25.7575 47.1843 25.5497C46.4515 25.2763 45.6968 24.9919 45.0078 24.62C44.7234 24.4669 44.45 24.3466 44.1656 24.2591C43.7937 24.1388 43.4328 24.0185 43.0828 23.8544C42.5578 23.6138 42.0547 23.2966 41.5734 22.9903L41.3875 22.87C41.114 22.695 40.8297 22.5091 40.6 22.2575C40.4687 22.1044 40.3265 21.9622 40.1843 21.82C39.8015 21.4263 39.4187 21.0216 39.1343 20.5403C39.1015 20.4747 39.0359 20.4419 38.9593 20.4419C38.8937 20.4419 38.8281 20.4856 38.7843 20.5513C38.7187 20.6606 38.6422 20.77 38.5765 20.8794C38.489 21.0216 38.3906 21.1638 38.3031 21.306C38.2593 21.3716 38.2156 21.4372 38.1718 21.4919C38.0953 21.6013 38.0187 21.7106 37.9531 21.831C37.8984 21.9294 37.8437 22.0169 37.8 22.1153C37.5812 22.5091 37.3515 22.9138 37.1437 23.3294C36.9468 23.7341 36.7281 24.1497 36.5203 24.5435C36.3453 24.8716 36.1703 25.2106 35.9953 25.5388C35.9406 25.6481 35.8859 25.7575 35.8203 25.8341C35.6343 26.0528 35.4812 26.2825 35.3281 26.5122L35.1312 26.8075C35.0109 26.9825 34.8906 27.1685 34.7812 27.3544C34.7593 27.3872 34.7375 27.42 34.7265 27.4528C34.639 27.595 34.5406 27.7481 34.4531 27.9013L34.3656 28.0325C34.1031 28.4481 33.8297 28.8747 33.5234 29.2575C33.3812 29.4325 33.239 29.6294 33.064 29.881C32.9437 30.0669 32.5062 30.581 32.539 30.7013C32.4078 30.92 32.2765 31.1388 32.1343 31.3685C32.025 31.5435 31.9156 31.7294 31.8172 31.9044L31.7734 31.97C31.5656 32.32 31.3468 32.67 31.1062 32.9981C30.8328 33.3591 30.5703 33.731 30.3187 34.1028C30.2093 34.2669 30.1 34.42 29.9797 34.5841C29.6953 34.956 29.3781 35.3388 29.0062 35.7325L28.7437 35.995C28.6015 36.1372 28.4593 36.2794 28.3281 36.4325C28.0328 36.7935 27.6937 37.1325 27.3656 37.4606L26.95 37.8763L26.9281 37.8981C26.8953 37.9419 26.8406 37.9856 26.8187 37.9856C26.6656 37.9856 26.5453 38.0403 26.414 38.0841C26.3703 38.106 26.3265 38.1169 26.2828 38.1278C26.0093 38.2153 25.7468 38.2591 25.4734 38.27C25.2328 38.27 24.9922 38.2372 24.7515 38.1716C24.6859 38.1497 24.6203 38.1388 24.5547 38.1169C24.5 38.095 24.4453 38.0841 24.3906 38.0622C24.3797 38.0622 24.3578 38.0513 24.3468 38.0513C24.2922 38.0513 24.2375 38.0731 24.2047 38.1169C24.1609 38.1606 24.139 38.2481 24.1828 38.3138L24.2156 38.3685C24.2593 38.456 24.3031 38.5435 24.3687 38.62C24.5656 38.8935 24.7734 39.1888 25.025 39.5169C25.2437 39.8122 25.4843 40.0419 25.7468 40.2278L25.9109 40.3372C26.2828 40.5888 26.6656 40.8513 27.0593 41.081C27.7812 41.4966 28.5687 41.8356 29.4 42.0981C29.564 42.1528 29.739 42.2075 29.9031 42.2622C30.439 42.4372 30.9968 42.6122 31.5547 42.7544C31.9812 42.8638 32.3968 43.0388 32.8015 43.2685C32.889 43.3122 32.9765 43.3669 33.064 43.4106C33.2828 43.531 33.5125 43.6622 33.7312 43.7935C34.1906 44.0669 34.7265 44.4169 35.1968 44.8544L35.3172 44.9747C35.514 45.1606 35.7218 45.3575 35.9406 45.5435C36.3781 45.9153 36.8047 46.3419 37.2531 46.845C37.4281 47.0419 37.6031 47.2278 37.7781 47.4138L37.8437 47.4794C38.0843 47.7419 38.325 48.0263 38.5656 48.3435C38.6968 48.5185 38.8281 48.7044 38.9703 48.8794C39.1781 49.1528 39.3968 49.4481 39.6047 49.7325L39.6812 49.831C39.8343 50.0278 39.9875 50.2466 40.1078 50.4544C40.3156 50.8263 40.5672 51.1872 40.7968 51.5372C40.9281 51.7231 41.0593 51.92 41.1797 52.1169C41.2125 52.1606 41.2343 52.2044 41.2672 52.2372C41.3109 52.2919 41.3656 52.3247 41.4312 52.3247C41.5187 52.3247 41.5843 52.27 41.6172 52.1935C41.6718 52.0185 41.7593 51.8653 41.8468 51.6903L41.8906 51.6138C41.9672 51.4606 42.0437 51.3185 42.1203 51.1653C42.3718 50.6731 42.6343 50.1591 42.8531 49.6341C42.9297 49.4591 43.0281 49.2841 43.1156 49.12L43.1265 49.0981C43.3234 48.7481 43.5312 48.3872 43.75 48.0153L43.7609 47.9935C43.8922 47.7747 44.0125 47.556 44.1547 47.3481C44.2531 47.206 44.3515 47.0638 44.4609 46.9325C44.5593 46.8013 44.6578 46.67 44.7453 46.5388C44.964 46.2325 45.1937 45.9153 45.4562 45.5872C45.7406 45.2372 46.0468 44.8872 46.3968 44.5153C46.9984 43.8591 47.4359 43.1044 47.6656 42.2513C47.6656 42.2403 47.6765 42.2185 47.6765 42.2075C47.7093 42.0981 47.9281 41.1575 47.9609 41.0372C47.9718 41.0044 47.9828 40.9716 47.9828 40.9497C48.0812 40.6653 48.1687 40.37 48.2453 40.0747C48.3109 39.8341 48.3875 39.5716 48.464 39.3419C48.5843 38.981 48.7593 38.6419 48.9672 38.3138L49.2953 37.8216C49.4484 37.6028 49.6125 37.3622 49.7547 37.1325C49.9953 36.7606 50.3015 36.4106 50.75 35.9731L50.8703 35.8528C51.089 35.645 51.3078 35.4263 51.5703 35.2513C51.8547 35.0653 52.15 34.8794 52.4672 34.6716C52.8609 34.431 53.3093 34.2888 53.7797 34.256C54.0859 34.2341 54.4031 34.1794 54.7203 34.1028C54.95 34.0481 55.1578 34.0153 55.3765 34.0153H55.4203C55.4859 34.0153 55.5625 34.0044 55.65 33.9606L55.7047 33.9278L55.7156 33.8622C55.7375 33.7091 55.639 33.545 55.5625 33.4138Z" fill="#FBF4E9"/>
<path d="M40.7423 16.3079C40.7095 16.1438 40.6657 15.9688 40.622 15.8048C40.6001 15.7173 40.5782 15.6188 40.5564 15.5313C40.5236 15.3782 40.4798 15.2688 40.4142 15.1704C40.2939 14.9735 40.1954 14.7548 40.1189 14.5688C39.9986 14.2845 39.8236 14.011 39.6157 13.7813C39.2548 13.3767 38.7517 12.8517 38.1392 12.436C37.5157 12.0095 36.7611 11.5063 35.9407 11.0907C35.6673 10.9595 35.4048 10.7954 35.1423 10.6313C34.8798 10.4673 34.5954 10.3142 34.2782 10.2048C34.0267 10.1063 33.6876 9.9751 33.3704 9.81104C32.9548 9.59229 32.5392 9.3626 32.1345 9.13291C32.0361 9.07822 31.9267 9.0126 31.8282 8.95791C31.7626 8.9251 31.7079 8.88135 31.6423 8.82666C31.6204 8.81572 31.5986 8.79385 31.5876 8.78291C31.4782 8.70635 31.3579 8.61885 31.2267 8.5751C31.0626 8.52041 30.8876 8.42197 30.7017 8.26885C30.3626 7.99541 29.9907 7.74385 29.6407 7.50322C29.4986 7.40479 29.3673 7.31729 29.2361 7.21885C28.7986 6.9126 28.4376 6.59541 28.1314 6.26729C28.0876 6.22354 28.0439 6.16885 28.0001 6.1251C27.7923 5.90635 27.6064 5.70947 27.4532 5.46885C27.3767 5.34854 27.2892 5.23916 27.2017 5.12979C27.0704 4.96572 26.9392 4.80166 26.8626 4.60478C26.8407 4.5501 26.797 4.52822 26.7751 4.50635C26.7642 4.49541 26.7532 4.49541 26.7314 4.48447L26.6001 4.39697L26.5454 4.53916C26.5017 4.65947 26.4361 4.76885 26.3814 4.87822C26.2829 5.05322 26.1845 5.2501 26.1298 5.45791C26.0314 5.87354 25.9329 6.28916 25.8345 6.69385C25.7798 6.90166 25.7361 7.09854 25.6814 7.30635C25.6486 7.45947 25.6048 7.62354 25.572 7.77666C25.4517 8.29072 25.3314 8.82666 25.1673 9.34072C25.0907 9.57041 25.0032 9.8001 24.9267 10.0298C24.8501 10.2267 24.7736 10.4345 24.7079 10.6532C24.5111 11.2548 24.2704 11.8563 24.0298 12.447L23.7017 13.2673C23.6579 13.3767 23.6142 13.4751 23.5814 13.5845C23.3407 14.197 23.0673 14.8313 22.7392 15.4329C22.6517 15.597 22.5642 15.772 22.4767 15.936C22.3126 16.2532 22.1486 16.5813 21.9517 16.8876C21.8642 16.9095 21.5798 17.5438 21.5251 17.6095C21.5032 17.6532 21.4814 17.686 21.4486 17.7298C21.4267 17.7626 21.4157 17.7954 21.3939 17.8173C21.3282 17.9157 21.2736 18.0251 21.2079 18.1345C21.0657 18.3751 20.9236 18.6157 20.7595 18.8454C20.4751 19.261 20.1798 19.6985 19.9064 20.1579C19.7861 20.3548 19.6657 20.5517 19.5454 20.7376C19.4907 20.8142 19.447 20.8907 19.3923 20.9673C19.3595 21.022 19.3157 21.0876 19.272 21.1423C19.2501 21.1751 19.2282 21.2188 19.2064 21.2517C19.0751 21.4595 18.9329 21.6673 18.8126 21.886C18.4407 22.5642 18.0142 23.1985 17.5329 23.8876C17.4017 24.0735 17.2923 24.2485 17.1939 24.4235C17.0079 24.7626 16.7892 25.1126 16.4611 25.5392L16.297 25.7689C16.0564 26.097 15.7939 26.436 15.5642 26.786C15.5314 26.8407 15.4986 26.8954 15.4548 26.9501C15.2689 27.2345 15.0939 27.5079 14.8532 27.7267C14.7986 27.7813 14.7657 27.847 14.7876 27.9126C14.7986 27.9892 14.8642 28.0548 14.9517 28.0767C15.0282 28.0985 15.0939 28.1204 15.1704 28.1532C15.3345 28.2079 15.4767 28.2517 15.6189 28.3173C15.8048 28.4048 16.0126 28.4813 16.2861 28.5579C16.4392 28.6017 16.5704 28.6454 16.6907 28.7001L17.0189 28.8642C17.172 28.9407 17.3361 29.0173 17.5001 29.0938L17.7079 29.1813C18.0798 29.3454 18.4736 29.5204 18.8564 29.7064C19.2829 29.9142 19.7095 30.1548 20.1142 30.3954C20.4204 30.5704 20.7486 30.7563 21.0767 30.9313C21.1204 30.9532 21.1642 30.986 21.2079 31.0189C21.2298 31.0298 21.2517 31.0517 21.2736 31.0626L21.4048 31.1501C21.7657 31.4017 22.1376 31.6642 22.5423 31.8829C22.8923 32.0688 23.297 32.3095 23.6798 32.5829C23.8111 32.6704 23.9423 32.7688 24.0626 32.8563C24.2704 32.9985 24.4892 33.1517 24.6861 33.3048C25.3095 33.786 25.9001 34.3329 26.4251 34.8251C26.797 35.1642 27.0595 35.5798 27.3329 36.0173L27.3767 36.0938C27.5189 36.3126 27.5298 36.5423 27.4204 36.772C27.4204 36.7829 27.4095 36.7938 27.4095 36.8048C27.3657 36.8813 27.3111 37.0017 27.3767 37.1438L27.4314 37.2532L27.5407 37.2095C27.6501 37.1657 27.7267 37.0782 27.7814 37.0017C27.7923 36.9907 27.8032 36.9798 27.8032 36.9688C28.197 36.4985 28.6236 36.072 29.1048 35.5907C29.1595 35.536 29.2032 35.4923 29.2579 35.4267C29.3892 35.2517 29.5204 35.0876 29.6626 34.9235C29.9032 34.6282 30.1548 34.322 30.3626 33.9829L30.5595 33.6876C30.6032 33.622 30.6579 33.5454 30.7017 33.4688C30.8001 33.3157 30.9095 33.1735 31.0189 33.0313C31.1611 32.8454 31.3032 32.6595 31.4236 32.4517C31.697 31.9813 31.9923 31.511 32.2657 31.0626C32.3532 30.9204 32.4298 30.7892 32.5173 30.647C32.6157 30.4829 32.7251 30.3188 32.8236 30.1657C33.0532 29.8157 33.2829 29.4985 33.5126 29.2032C33.7095 28.9626 33.9282 28.6673 34.1251 28.3501C34.3767 27.9345 34.6392 27.5188 34.9017 27.1142C35.0439 26.8954 35.1751 26.6985 35.3064 26.5235C35.4376 26.3376 36.0173 25.6704 35.9626 25.561C35.9626 25.561 35.9626 25.5501 35.9517 25.5501C35.9626 25.5173 35.9845 25.4954 35.9954 25.4626L36.2032 25.0579C36.4986 24.4892 36.8048 23.8876 37.1111 23.3079C37.1876 23.1657 37.2751 23.0126 37.3626 22.8485L37.4939 22.6188C37.5157 22.586 37.5376 22.5532 37.5486 22.5204C37.6579 22.3454 37.7673 22.1595 37.8329 21.9517C37.8548 21.886 37.8876 21.8204 37.9423 21.7438C38.2704 21.3063 38.5548 20.836 38.8282 20.3767L38.9157 20.2235C39.2657 19.6438 39.5939 19.0423 39.922 18.4626C40.0642 18.211 40.2064 17.9485 40.3595 17.686C40.4798 17.4673 40.5892 17.2157 40.6657 16.9204C40.7861 16.7017 40.7861 16.5048 40.7423 16.3079Z" fill="#FBF4E9"/>
<path d="M28.011 33.7202C28.011 33.7202 27.3985 30.3733 22.4219 27.9233C19.7641 26.6108 17.4673 26.1515 16.1219 26.064C15.9469 26.3046 15.7719 26.5452 15.6079 26.7858C15.5751 26.8405 15.5423 26.8952 15.4985 26.9499C15.3126 27.2343 15.1376 27.5077 14.8969 27.7265C14.8423 27.7812 14.8094 27.8468 14.8313 27.9124C14.8423 27.989 14.9079 28.0546 14.9954 28.0765C15.0719 28.0983 15.1376 28.1202 15.2141 28.153C15.3782 28.2077 15.5204 28.2515 15.6626 28.3171C15.8485 28.4046 16.0563 28.4812 16.3298 28.5577C16.4829 28.6015 16.6141 28.6452 16.7344 28.6999L17.0626 28.864C17.2157 28.9405 17.3798 29.0171 17.5438 29.0937L17.7516 29.1812C18.1235 29.3452 18.5173 29.5202 18.9001 29.7062C19.3266 29.914 19.7532 30.1546 20.1579 30.3952C20.4641 30.5702 20.7923 30.7562 21.1204 30.9312C21.1641 30.953 21.2079 30.9858 21.2516 31.0187C21.2735 31.0296 21.2954 31.0515 21.3173 31.0624L21.4485 31.1499C21.8094 31.4015 22.1813 31.664 22.586 31.8827C22.936 32.0687 23.3407 32.3093 23.7235 32.5827C23.8548 32.6702 23.986 32.7687 24.1063 32.8562C24.3141 32.9983 24.5329 33.1515 24.7298 33.3046C25.3532 33.7858 25.9438 34.3327 26.4688 34.8249C26.8407 35.164 27.1032 35.5796 27.3766 36.0171L27.4204 36.0937C27.5626 36.3124 27.5735 36.5421 27.4641 36.7718C27.4641 36.7827 27.4532 36.7937 27.4532 36.8046C27.4094 36.8812 27.3548 37.0015 27.4204 37.1437L27.4751 37.253L27.5407 37.2312C27.5407 37.1437 27.5407 37.078 27.5516 37.078C28.7438 35.864 28.011 33.7202 28.011 33.7202Z" fill="#EAE1D7"/>
<path d="M55.5625 33.4138L55.5187 33.3372C55.2562 32.8888 54.9718 32.4294 54.6984 31.9919C54.4906 31.6638 54.25 31.3466 54.0093 31.0513C53.8781 30.8872 53.7468 30.7122 53.6156 30.5372C53.4078 30.2528 53.1453 29.9794 52.7843 29.6622C52.5 29.4106 52.2156 29.1372 51.9531 28.8856C51.6359 28.5685 51.3406 28.295 51.0125 28.0435C50.7828 27.8685 50.5531 27.6825 50.3343 27.4747C49.8203 27.0044 49.3281 26.6325 48.825 26.3372C48.289 26.02 47.7422 25.7575 47.1843 25.5497C46.4515 25.2763 45.6968 24.9919 45.0078 24.62C44.7234 24.4669 44.45 24.3466 44.1656 24.2591C43.7937 24.1388 43.4328 24.0185 43.0828 23.8544C42.5578 23.6138 42.0547 23.2966 41.5734 22.9903L41.3875 22.87C41.114 22.695 40.8297 22.5091 40.6 22.2575C40.4687 22.1044 40.3265 21.9622 40.1843 21.82C39.8015 21.4263 39.4187 21.0216 39.1343 20.5403C39.1015 20.4747 39.0359 20.4419 38.9593 20.4419C38.8937 20.4419 38.8281 20.4856 38.7843 20.5513C38.7187 20.6606 38.6422 20.77 38.5765 20.8794C38.489 21.0216 38.3906 21.1638 38.3031 21.306C38.2593 21.3716 38.2156 21.4372 38.1718 21.4919C38.0953 21.6013 38.0187 21.7106 37.9531 21.831C37.8984 21.9294 37.8437 22.0169 37.8 22.1153C37.5812 22.5091 37.3515 22.9138 37.1437 23.3294C36.9468 23.7341 36.7281 24.1497 36.5203 24.5435C36.3453 24.8716 36.1703 25.2106 35.9953 25.5388C35.9406 25.6481 35.8859 25.7575 35.8203 25.8341C35.6343 26.0528 35.4812 26.2825 35.3281 26.5122L35.1312 26.8075C35.0109 26.9825 34.8906 27.1685 34.7812 27.3544C34.7593 27.3872 34.7375 27.42 34.7265 27.4528C34.639 27.595 34.5406 27.7481 34.4531 27.9013L34.3656 28.0325C34.1031 28.4481 33.8297 28.8747 33.5234 29.2575C33.3812 29.4325 33.239 29.6294 33.064 29.881C32.9437 30.0669 32.5062 30.581 32.539 30.7013C32.4078 30.92 32.2765 31.1388 32.1343 31.3685C32.025 31.5435 31.9156 31.7294 31.8172 31.9044L31.7734 31.97C31.5656 32.32 31.3468 32.67 31.1062 32.9981C30.8328 33.3591 30.5703 33.731 30.3187 34.1028C30.2093 34.2669 30.1 34.42 29.9797 34.5841C29.6953 34.956 29.3781 35.3388 29.0062 35.7325L28.7437 35.995C28.6015 36.1372 28.4593 36.2794 28.3281 36.4325C28.0328 36.7935 27.6937 37.1325 27.3656 37.4606L26.95 37.8763L26.9281 37.8981C26.8953 37.9419 26.8406 37.9856 26.8187 37.9856C26.6656 37.9856 26.5453 38.0403 26.414 38.0841C26.3703 38.106 26.3265 38.1169 26.2828 38.1278C26.0093 38.2153 25.7468 38.2591 25.4734 38.27C25.2328 38.27 24.9922 38.2372 24.7515 38.1716C24.6859 38.1497 24.6203 38.1388 24.5547 38.1169C24.5 38.095 24.4453 38.0841 24.3906 38.0622C24.3797 38.0622 24.3578 38.0513 24.3468 38.0513C24.2922 38.0513 24.2375 38.0731 24.2047 38.1169C24.1609 38.1606 24.139 38.2481 24.1828 38.3138L24.2156 38.3685C24.2593 38.456 24.3031 38.5435 24.3687 38.62C24.5656 38.8935 24.7734 39.1888 25.025 39.5169C25.2437 39.8122 25.4843 40.0419 25.7468 40.2278L25.9109 40.3372C26.2828 40.5888 26.6656 40.8513 27.0593 41.081C27.7812 41.4966 28.5687 41.8356 29.4 42.0981C29.564 42.1528 29.739 42.2075 29.9031 42.2622C30.439 42.4372 30.9968 42.6122 31.5547 42.7544C31.9812 42.8638 32.3968 43.0388 32.8015 43.2685C32.889 43.3122 32.9765 43.3669 33.064 43.4106C33.2828 43.531 33.5125 43.6622 33.7312 43.7935C34.1906 44.0669 34.7265 44.4169 35.1968 44.8544L35.3172 44.9747C35.514 45.1606 35.7218 45.3575 35.9406 45.5435C36.3781 45.9153 36.8047 46.3419 37.2531 46.845C37.4281 47.0419 37.6031 47.2278 37.7781 47.4138L37.8437 47.4794C38.0843 47.7419 38.325 48.0263 38.5656 48.3435C38.6968 48.5185 38.8281 48.7044 38.9703 48.8794C39.1781 49.1528 39.3968 49.4481 39.6047 49.7325L39.6812 49.831C39.8343 50.0278 39.9875 50.2466 40.1078 50.4544C40.3156 50.8263 40.5672 51.1872 40.7968 51.5372C40.9281 51.7231 41.0593 51.92 41.1797 52.1169C41.2125 52.1606 41.2343 52.2044 41.2672 52.2372C41.3109 52.2919 41.3656 52.3247 41.4312 52.3247C41.5187 52.3247 41.5843 52.27 41.6172 52.1935C41.6718 52.0185 41.7593 51.8653 41.8468 51.6903L41.8906 51.6138C41.9672 51.4606 42.0437 51.3185 42.1203 51.1653C42.3718 50.6731 42.6343 50.1591 42.8531 49.6341C42.9297 49.4591 43.0281 49.2841 43.1156 49.12L43.1265 49.0981C43.3234 48.7481 43.5312 48.3872 43.75 48.0153L43.7609 47.9935C43.8922 47.7747 44.0125 47.556 44.1547 47.3481C44.2531 47.206 44.3515 47.0638 44.4609 46.9325C44.5593 46.8013 44.6578 46.67 44.7453 46.5388C44.964 46.2325 45.1937 45.9153 45.4562 45.5872C45.7406 45.2372 46.0468 44.8872 46.3968 44.5153C46.9984 43.8591 47.4359 43.1044 47.6656 42.2513C47.6656 42.2403 47.6765 42.2185 47.6765 42.2075C47.7093 42.0981 47.9281 41.1575 47.9609 41.0372C47.9718 41.0044 47.9828 40.9716 47.9828 40.9497C48.0812 40.6653 48.1687 40.37 48.2453 40.0747C48.3109 39.8341 48.3875 39.5716 48.464 39.3419C48.5843 38.981 48.7593 38.6419 48.9672 38.3138L49.2953 37.8216C49.4484 37.6028 49.6125 37.3622 49.7547 37.1325C49.9953 36.7606 50.3015 36.4106 50.75 35.9731L50.8703 35.8528C51.089 35.645 51.3078 35.4263 51.5703 35.2513C51.8547 35.0653 52.15 34.8794 52.4672 34.6716C52.8609 34.431 53.3093 34.2888 53.7797 34.256C54.0859 34.2341 54.4031 34.1794 54.7203 34.1028C54.95 34.0481 55.1578 34.0153 55.3765 34.0153H55.4203C55.4859 34.0153 55.5625 34.0044 55.65 33.9606L55.7047 33.9278L55.7156 33.8622C55.7375 33.7091 55.639 33.545 55.5625 33.4138Z" fill="#FBF4E9"/>
<path d="M55.5625 33.414L55.5187 33.3374C55.2562 32.889 54.9718 32.4296 54.6984 31.9921C54.4906 31.664 54.25 31.3468 54.0093 31.0515C53.8781 30.8874 53.7468 30.7124 53.6156 30.5374C53.4078 30.253 53.1453 29.9796 52.7843 29.6624C52.5 29.4108 52.2156 29.1374 51.9531 28.8858C51.6359 28.5687 51.3406 28.2952 51.0125 28.0437C50.7828 27.8687 50.5531 27.6827 50.3343 27.4749C49.8203 27.0046 49.3281 26.6327 48.825 26.3374L48.5297 26.1733L48.7922 26.8187C49.339 28.164 49.3937 29.2796 49.339 29.9796C49.2297 31.3905 48.5953 32.6702 47.4797 33.7858C47.2281 34.0374 46.9547 34.3218 46.6703 34.628C45.8937 35.4593 45.0515 36.4437 44.2859 37.4171C43.1375 38.8937 42.7328 40.3374 42.3718 41.6171C42.3609 41.6608 42.35 41.7046 42.339 41.7374C41.9234 43.203 41.5625 44.3733 40.1734 45.0733C40.064 45.128 39.9437 45.1608 39.8343 45.1608C39.3312 45.1608 38.7406 44.6249 37.9859 43.9577C36.8265 42.9187 35.2515 41.5077 32.7578 40.9062C28.0218 39.7687 26.0531 39.1233 24.664 38.2483C24.6531 38.2483 24.6531 38.2374 24.6422 38.2374L24.3468 38.0624C24.2922 38.0624 24.2375 38.0843 24.2047 38.128C24.1609 38.1718 24.139 38.2593 24.1828 38.3249L24.2156 38.3796C24.2593 38.4671 24.3031 38.5546 24.3687 38.6312C24.5656 38.9046 24.7734 39.1999 25.025 39.528C25.2437 39.8233 25.4843 40.053 25.7468 40.239L25.9109 40.3483C26.2828 40.5999 26.6656 40.8624 27.0593 41.0921C27.7812 41.5077 28.5687 41.8468 29.4 42.1093C29.564 42.164 29.739 42.2187 29.9031 42.2733C30.439 42.4483 30.9968 42.6233 31.5547 42.7655C31.9812 42.8749 32.3968 43.0499 32.8015 43.2796C32.889 43.3233 32.9765 43.378 33.064 43.4218C33.2828 43.5421 33.5125 43.6733 33.7312 43.8046C34.1906 44.078 34.7265 44.428 35.1968 44.8655L35.3172 44.9858C35.514 45.1718 35.7218 45.3687 35.9406 45.5546C36.3781 45.9265 36.8047 46.353 37.2531 46.8562C37.4281 47.053 37.6031 47.239 37.7781 47.4249L37.8437 47.4905C38.0843 47.753 38.325 48.0374 38.5656 48.3546C38.6968 48.5296 38.8281 48.7155 38.9703 48.8905C39.1781 49.164 39.3968 49.4593 39.6047 49.7437L39.6812 49.8421C39.8343 50.039 39.9875 50.2577 40.1078 50.4655C40.3156 50.8374 40.5672 51.1983 40.7968 51.5483C40.9281 51.7343 41.0593 51.9312 41.1797 52.128C41.2125 52.1718 41.2343 52.2155 41.2672 52.2483C41.3109 52.303 41.3656 52.3358 41.4312 52.3358C41.5187 52.3358 41.5843 52.2812 41.6172 52.2046C41.6718 52.0296 41.7593 51.8765 41.8468 51.7015L41.8906 51.6249C41.9672 51.4718 42.0437 51.3296 42.1203 51.1765C42.3718 50.6843 42.6343 50.1702 42.8531 49.6452C42.9297 49.4702 43.0281 49.2952 43.1156 49.1312L43.1265 49.1093C43.3234 48.7593 43.5312 48.3983 43.75 48.0265L43.7609 48.0046C43.8922 47.7858 44.0125 47.5671 44.1547 47.3593C44.2531 47.2171 44.3515 47.0749 44.4609 46.9437C44.5593 46.8124 44.6578 46.6812 44.7453 46.5499C44.964 46.2437 45.1937 45.9265 45.4562 45.5983C45.7406 45.2483 46.0468 44.8983 46.3968 44.5265C46.9984 43.8702 47.4359 43.1155 47.6656 42.2624C47.6656 42.2515 47.6765 42.2296 47.6765 42.2187C47.7093 42.1093 47.9281 41.1687 47.9609 41.0483C47.9718 41.0155 47.9828 40.9827 47.9828 40.9608C48.0812 40.6765 48.1687 40.3812 48.2453 40.0858C48.3109 39.8452 48.3875 39.5827 48.464 39.353C48.5843 38.9921 48.7593 38.653 48.9672 38.3249L49.2953 37.8327C49.4484 37.614 49.6125 37.3733 49.7547 37.1437C49.9953 36.7718 50.3015 36.4218 50.75 35.9843L50.8703 35.864C51.089 35.6562 51.3078 35.4374 51.5703 35.2624C51.8547 35.0765 52.15 34.8905 52.4672 34.6827C52.8609 34.4421 53.3093 34.2999 53.7797 34.2671C54.0859 34.2452 54.4031 34.1905 54.7203 34.114C54.95 34.0593 55.1578 34.0265 55.3765 34.0265H55.4203C55.4859 34.0265 55.5625 34.0155 55.65 33.9718L55.7047 33.939L55.7156 33.8733C55.7375 33.7093 55.639 33.5452 55.5625 33.414Z" fill="#EAE1D7"/>
<path d="M33.3921 35.4922L29.2358 42.0766C29.2905 42.0984 29.3452 42.1094 29.389 42.1313C29.553 42.1859 29.728 42.2406 29.8921 42.2953C30.428 42.4703 30.9858 42.6453 31.5437 42.7875C31.9702 42.8969 32.3858 43.0719 32.7905 43.3016C32.878 43.3453 32.9655 43.4 33.053 43.4438C33.2718 43.5641 33.5015 43.6953 33.7202 43.8266C34.1796 44.1 34.7155 44.45 35.1858 44.8875L35.3062 45.0078C35.503 45.1938 35.7108 45.3906 35.9296 45.5766C36.3671 45.9484 36.7937 46.375 37.2421 46.8781C37.4171 47.075 37.5921 47.2609 37.7671 47.4469L37.8327 47.5125C38.0733 47.775 38.314 48.0594 38.5546 48.3766C38.6858 48.5516 38.8171 48.7375 38.9593 48.9125C39.1671 49.1859 39.3858 49.4813 39.5937 49.7656L39.6702 49.8641C39.8233 50.0609 39.9765 50.2797 40.0968 50.4875C40.3046 50.8594 40.5562 51.2203 40.7858 51.5703C40.9171 51.7563 41.0483 51.9531 41.1687 52.15C41.2015 52.1938 41.2233 52.2375 41.2562 52.2703C41.2999 52.325 41.3546 52.3578 41.4202 52.3578C41.5077 52.3578 41.5733 52.3031 41.6062 52.2266C41.6608 52.0516 41.7483 51.8984 41.8358 51.7234L41.8796 51.6469L42.0437 51.3188L33.3921 35.4922Z" fill="white" fill-opacity="0.44"/>
<path d="M42.0327 51.3188L38.0624 44.0454C38.0405 44.0235 38.0077 44.0017 37.9858 43.9798C36.8265 42.9407 35.2515 41.5298 32.7577 40.9282C31.8608 40.7095 31.0624 40.5126 30.3515 40.3267L29.2358 42.0876C29.2905 42.1095 29.3452 42.1204 29.389 42.1423C29.553 42.197 29.728 42.2517 29.8921 42.3063C30.428 42.4813 30.9858 42.6563 31.5437 42.7985C31.9702 42.9079 32.3858 43.0829 32.7905 43.3126C32.878 43.3563 32.9655 43.411 33.053 43.4548C33.2171 43.5423 33.3921 43.6407 33.5562 43.7392L33.7202 43.8376C33.8405 43.9032 33.9608 43.9798 34.0812 44.0563C34.3874 44.2532 34.7046 44.472 35.0108 44.7345C35.0655 44.7892 35.1312 44.8438 35.1858 44.8985L35.3062 45.0188C35.4046 45.1173 35.503 45.2157 35.6124 45.3032C35.7108 45.4017 35.8202 45.4892 35.9296 45.5876C36.3671 45.9595 36.7937 46.386 37.2421 46.8892C37.4171 47.086 37.5921 47.272 37.7671 47.4579L37.8327 47.5235C37.9202 47.622 38.0187 47.7204 38.1062 47.8298C38.2593 48.0048 38.4015 48.1907 38.5546 48.3876C38.6858 48.5626 38.8171 48.7485 38.9593 48.9235C39.1124 49.1313 39.2765 49.3501 39.4405 49.5579C39.4952 49.6345 39.5499 49.7001 39.5937 49.7767L39.6702 49.8751C39.8233 50.072 39.9765 50.2907 40.0968 50.4985C40.228 50.7282 40.3702 50.9579 40.5233 51.1876L40.7858 51.5813C40.9171 51.7673 41.0483 51.9642 41.1687 52.161C41.2015 52.2048 41.2233 52.2485 41.2562 52.2813C41.2999 52.336 41.3546 52.3688 41.4202 52.3688H41.453C41.5187 52.3579 41.5843 52.3142 41.6062 52.2376C41.6608 52.0626 41.7483 51.9095 41.8358 51.7345L41.8796 51.6579C41.9233 51.5376 41.978 51.4282 42.0327 51.3188Z" fill="white" fill-opacity="0.44"/>
<path d="M41.5077 22.9468L37.9858 28.3499L52.5218 29.4218C52.3249 29.2468 52.139 29.0608 51.964 28.8858C51.6468 28.5687 51.3515 28.2952 51.0233 28.0437C50.7937 27.8687 50.564 27.6827 50.3452 27.4749C49.8312 27.0046 49.339 26.6327 48.8358 26.3374C48.2999 26.0202 47.753 25.7577 47.1952 25.5499C46.4624 25.2765 45.7077 24.9921 45.0187 24.6202C44.7343 24.4671 44.4608 24.3468 44.1765 24.2593C43.8046 24.139 43.4437 24.0187 43.0937 23.8546C42.5687 23.614 42.0655 23.2968 41.5843 22.9905L41.5077 22.9468Z" fill="white" fill-opacity="0.44"/>
<path d="M48.5405 26.1733L48.803 26.8187C49.1749 27.7374 49.3171 28.5358 49.3499 29.1812L52.5108 29.4108C52.4233 29.3343 52.3358 29.2468 52.2593 29.1702L52.2155 29.1265L52.1171 29.028L51.964 28.8749C51.7671 28.678 51.5702 28.503 51.3843 28.328C51.264 28.2296 51.1546 28.1312 51.0233 28.0327C50.9687 27.989 50.914 27.9452 50.8483 27.9015C50.6733 27.7702 50.5093 27.6171 50.3343 27.464C49.8202 26.9937 49.328 26.6218 48.8249 26.3265C48.7702 26.2937 48.7155 26.2608 48.6718 26.239C48.628 26.228 48.5843 26.2062 48.5405 26.1733Z" fill="white" fill-opacity="0.44"/>
<path d="M43.6079 32.9219L49.897 36.9688C50.1157 36.6625 50.3892 36.3672 50.761 36.0063L50.8813 35.8859C51.1001 35.6781 51.3188 35.4594 51.5813 35.2844C51.8657 35.0984 52.161 34.9125 52.4782 34.7047C52.872 34.4641 53.3204 34.3219 53.7907 34.2891C54.097 34.2672 54.4142 34.2125 54.7313 34.1359C54.961 34.0813 55.1688 34.0484 55.3876 34.0484H55.4313C55.497 34.0484 55.5735 34.0375 55.661 33.9937L55.7157 33.9609L55.7267 33.8953V33.8078L43.6079 32.9219Z" fill="white" fill-opacity="0.44"/>
<path d="M55.7155 33.8513V33.8075L47.9827 33.2388C47.8296 33.4247 47.6546 33.6106 47.4796 33.7966C47.228 34.0481 46.9546 34.3325 46.6702 34.6388C46.6155 34.6935 46.5718 34.7481 46.5171 34.8028L49.8858 36.9685C49.9077 36.9356 49.9405 36.8919 49.9624 36.8591C49.9624 36.8591 49.9624 36.8481 49.9733 36.8481C50.028 36.7716 50.0937 36.706 50.1483 36.6294L50.1593 36.6185C50.1921 36.5856 50.2249 36.5419 50.2577 36.5091L50.2687 36.4981C50.3015 36.4653 50.3343 36.4216 50.3671 36.3888C50.3999 36.356 50.4327 36.3122 50.4765 36.2794L50.4983 36.2575L50.6077 36.1481L50.6296 36.1263L50.7499 36.006L50.8702 35.8856L50.9468 35.8091C51.1437 35.6231 51.3405 35.4372 51.5593 35.295C51.8437 35.1091 52.139 34.9231 52.4562 34.7153C52.8499 34.4747 53.2983 34.3325 53.7687 34.2997C53.9983 34.2888 54.239 34.256 54.4796 34.2013C54.5562 34.1794 54.6437 34.1685 54.7202 34.1466C54.8296 34.1138 54.9499 34.0919 55.0593 34.081C55.1687 34.07 55.278 34.0591 55.3874 34.0591H55.5405C55.5733 34.0481 55.6171 34.0372 55.6608 34.0153L55.7155 33.9825L55.7265 33.9169C55.7155 33.8841 55.7155 33.8731 55.7155 33.8513Z" fill="white" fill-opacity="0.44"/>
<path d="M39.8672 38.7188L44.3953 47.0094C44.4062 46.9984 44.4172 46.9766 44.4281 46.9656C44.5266 46.8344 44.625 46.7031 44.7125 46.5719C44.9312 46.2656 45.1609 45.9484 45.4234 45.6203C45.7078 45.2703 46.0141 44.9203 46.3641 44.5484C46.6812 44.1984 46.9547 43.8266 47.1734 43.4328L39.8672 38.7188Z" fill="white" fill-opacity="0.44"/>
<path d="M46.3749 44.5484C46.3749 44.5375 46.3749 44.5375 46.3749 44.5484C46.4187 44.5047 46.4515 44.4609 46.4952 44.4172C46.5062 44.4063 46.5171 44.3953 46.5171 44.3844C46.5499 44.3516 46.5718 44.3187 46.6046 44.2859C46.6155 44.275 46.6155 44.2641 46.6265 44.2531C46.6593 44.2203 46.6812 44.1875 46.714 44.1438L46.7358 44.1219C46.7687 44.0781 46.7905 44.0453 46.8233 44.0016C46.8233 44.0016 46.8343 43.9906 46.8343 43.9797C46.8671 43.9359 46.889 43.8922 46.9218 43.8484C46.9218 43.8484 46.9218 43.8375 46.9327 43.8375C46.9655 43.7937 46.9874 43.75 47.0202 43.7063C47.053 43.6625 47.0749 43.6078 47.1077 43.5641C47.1405 43.5203 47.1624 43.4656 47.1952 43.4109L42.7218 40.5234C42.6015 40.8953 42.503 41.2562 42.4046 41.6062C42.3937 41.65 42.3827 41.6938 42.3718 41.7266C42.2733 42.0656 42.1858 42.3828 42.0874 42.6891L44.428 46.9875C44.439 46.9766 44.4499 46.9547 44.4608 46.9438C44.5593 46.8125 44.6577 46.6813 44.7452 46.55C44.964 46.2438 45.1937 45.9266 45.4562 45.5984C45.7187 45.2703 46.0249 44.9203 46.3749 44.5484Z" fill="white" fill-opacity="0.44"/>
<path d="M34.3657 20.1142L34.7157 20.7704L39.4188 13.5626C39.0798 13.2017 38.6532 12.786 38.1501 12.436C37.5266 12.0095 36.7719 11.5063 35.9516 11.0907C35.6782 10.9595 35.4157 10.7954 35.1532 10.6313C34.8907 10.4673 34.6063 10.3142 34.2891 10.2048C34.0376 10.1063 33.6985 9.9751 33.3813 9.81103C32.9657 9.59228 32.5501 9.3626 32.1454 9.13291C32.0469 9.07822 31.9376 9.0126 31.8391 8.95791C31.7735 8.9251 31.7188 8.88135 31.6532 8.82666C31.6313 8.81572 31.6094 8.79385 31.5985 8.78291C31.4891 8.70635 31.3688 8.61885 31.2376 8.5751C31.0735 8.52041 30.8985 8.42197 30.7126 8.26885C30.3735 7.99541 30.0016 7.74385 29.6516 7.50322C29.5094 7.40478 29.3782 7.31729 29.2469 7.21885C28.8094 6.9126 28.4485 6.59541 28.1423 6.26728C28.0985 6.22353 28.0548 6.16885 28.011 6.1251C27.8032 5.90635 27.6173 5.70947 27.4641 5.46885C27.3876 5.34854 27.3001 5.23916 27.2126 5.12979C27.0813 4.96572 26.9501 4.80166 26.8735 4.60478C26.8516 4.5501 26.8079 4.52822 26.786 4.50635C26.7751 4.49541 26.7641 4.49541 26.7423 4.48447L26.611 4.39697L26.5563 4.53916C26.5126 4.65947 26.4469 4.76885 26.3923 4.87822C26.3376 4.9876 26.2719 5.09697 26.2173 5.21729L34.3657 20.1142ZM28.2298 17.511L24.6313 10.9157C24.4563 11.4298 24.2485 11.9329 24.0516 12.4251L23.7235 13.2454C23.6798 13.3548 23.636 13.4532 23.6032 13.5626C23.5048 13.8142 23.3954 14.0657 23.286 14.3173L28.2298 17.511ZM30.1657 27.8579L29.4001 27.8251L15.5969 26.797C15.5641 26.8407 15.5313 26.8954 15.4985 26.9501C15.3126 27.2345 15.1376 27.5079 14.8969 27.7267C14.8423 27.7813 14.8094 27.847 14.8313 27.9126C14.8423 27.9892 14.9079 28.0548 14.9954 28.0767C15.0719 28.0985 15.1376 28.1204 15.2141 28.1532C15.3782 28.2079 15.5204 28.2517 15.6626 28.3173C15.8485 28.4048 16.0563 28.4813 16.3298 28.5579C16.4829 28.6017 16.6141 28.6454 16.7344 28.7001L17.0626 28.8642C17.2157 28.9407 17.3798 29.0173 17.5438 29.0938L17.7516 29.1813C18.1235 29.3454 18.5173 29.5204 18.9001 29.7063C19.3266 29.9142 19.7532 30.1548 20.1579 30.3954C20.4641 30.5704 20.7923 30.7563 21.1204 30.9313C21.1641 30.9532 21.2079 30.986 21.2516 31.0188C21.2735 31.0298 21.2954 31.0517 21.3173 31.0626L21.4485 31.1501C21.8094 31.4017 22.1813 31.6642 22.586 31.8829C22.936 32.0688 23.3407 32.3095 23.7235 32.5829C23.8548 32.6704 23.986 32.7688 24.1063 32.8563C24.3141 32.9985 24.5329 33.1517 24.7298 33.3048C25.1782 33.6548 25.6266 34.0485 26.0313 34.4204L30.1657 27.8579Z" fill="white" fill-opacity="0.44"/>
<path d="M23.7015 32.5826C23.7125 32.5936 23.7234 32.5936 23.7234 32.6045C23.8437 32.692 23.964 32.7686 24.0843 32.8561C24.2703 32.9873 24.4562 33.1076 24.6312 33.2498C24.6531 33.2717 24.6859 33.2936 24.7078 33.3045C24.7734 33.3592 24.85 33.4139 24.9156 33.4686C24.9375 33.4904 24.9593 33.5014 24.9812 33.5232C25.0359 33.567 25.0796 33.6107 25.1343 33.6545C25.1562 33.6654 25.1781 33.6873 25.189 33.6982L25.3859 33.8623C25.4078 33.8732 25.4187 33.8951 25.4406 33.9061C25.4843 33.9498 25.5281 33.9826 25.5828 34.0264C25.6156 34.0482 25.6375 34.0701 25.6703 34.1029C25.7031 34.1357 25.7468 34.1686 25.7796 34.2014C25.8562 34.2779 25.9437 34.3436 26.0203 34.4201L27.3984 32.2436C26.7093 31.0514 25.2875 29.3451 22.4218 27.9342C21.8421 27.6498 21.2734 27.3982 20.7265 27.1904L15.5968 26.8076C15.564 26.8514 15.5312 26.9061 15.4984 26.9607C15.4546 27.0373 15.4109 27.1029 15.3562 27.1686C15.3125 27.2342 15.2687 27.2998 15.214 27.3654C15.1156 27.4967 15.0171 27.617 14.8859 27.7264C14.8531 27.7482 14.8312 27.7811 14.8203 27.8139C14.8093 27.8357 14.8093 27.8686 14.8093 27.8904V27.9123C14.8203 27.9889 14.8859 28.0545 14.9734 28.0764C15.05 28.0982 15.1156 28.1201 15.1921 28.1529C15.3562 28.2076 15.4984 28.2514 15.6406 28.317C15.8265 28.4045 16.0343 28.4811 16.3078 28.5576C16.3843 28.5795 16.4609 28.6014 16.5265 28.6232L16.625 28.6561C16.6359 28.667 16.6578 28.667 16.6687 28.6779C16.6796 28.6889 16.7015 28.6889 16.7125 28.6998C16.7453 28.7107 16.7671 28.7217 16.8 28.7436C16.8875 28.7873 16.964 28.8201 17.0515 28.8639C17.2046 28.9404 17.3687 29.017 17.5328 29.0936L17.6312 29.1373L17.7296 29.1811C18.1015 29.3451 18.4953 29.5201 18.8781 29.7061L19.1406 29.8373C19.4796 30.0123 19.8078 30.1982 20.125 30.3842C20.4312 30.5592 20.7593 30.7451 21.0875 30.9201L21.0984 30.9311C21.1312 30.9529 21.175 30.9748 21.2078 31.0076C21.2187 31.0186 21.2406 31.0295 21.2515 31.0404L21.2625 31.0514L21.3937 31.1389C21.7546 31.3904 22.1265 31.6529 22.5312 31.8717C22.575 31.8936 22.6187 31.9154 22.6625 31.9482C22.9687 32.1123 23.2968 32.3201 23.625 32.5389C23.6687 32.5607 23.6906 32.5717 23.7015 32.5826Z" fill="white" fill-opacity="0.44"/>
<path d="M24.4891 23.3079L19.8406 20.311C19.7531 20.4532 19.6547 20.6063 19.5672 20.7376C19.5125 20.8142 19.4688 20.8907 19.4141 20.9673C19.3813 21.022 19.3375 21.0876 19.2937 21.1423C19.2719 21.1751 19.25 21.2188 19.2281 21.2517C19.0969 21.4595 18.9547 21.6673 18.8344 21.886C18.6594 22.2142 18.4734 22.5313 18.2656 22.8376L24.4891 23.3079Z" fill="white" fill-opacity="0.44"/>
<path d="M33.1624 20.7703L25.7358 7.16406L25.703 7.29531C25.6702 7.44844 25.6265 7.6125 25.5937 7.76562C25.4843 8.225 25.3749 8.70625 25.2327 9.16563L30.7015 19.1844L33.1624 20.7703ZM27.0483 24.8719L17.4015 24.1609C17.3468 24.2484 17.2921 24.3469 17.2374 24.4344C17.0624 24.7625 16.8437 25.0906 16.5483 25.4953L29.4983 26.4469L27.0483 24.8719Z" fill="black" fill-opacity="0.17"/>
<path d="M35.9952 25.539C35.9952 25.539 35.9952 25.528 35.9843 25.528C35.9952 25.4952 36.0171 25.4733 36.028 25.4405L36.2358 25.0358C36.5311 24.4671 36.8374 23.8655 37.1437 23.2858C37.2202 23.1437 37.3077 22.9905 37.3952 22.8265L37.5265 22.5968C37.5483 22.564 37.5702 22.5312 37.5812 22.4983C37.6905 22.3233 37.7999 22.1374 37.8655 21.9296C37.8874 21.864 37.9202 21.7983 37.9749 21.7218C38.303 21.2843 38.5874 20.814 38.8608 20.3546L38.9483 20.2015C39.2983 19.6218 39.6265 19.0202 39.9546 18.4405C40.0968 18.189 40.239 17.9265 40.3921 17.664C40.5124 17.4452 40.6218 17.1937 40.6983 16.8983C40.764 16.6905 40.764 16.4937 40.7202 16.2858C40.6874 16.1218 40.6437 15.9468 40.5999 15.7827C40.578 15.6952 40.5562 15.5968 40.5343 15.5093C40.5015 15.3562 40.4577 15.2468 40.3921 15.1483C40.3155 15.039 40.2608 14.9187 40.2062 14.7983L34.6718 23.2968L22.6515 15.553C22.5858 15.6733 22.5312 15.7937 22.4655 15.914C22.3015 16.2312 22.1374 16.5593 21.9405 16.8655C21.853 16.8874 21.5687 17.5218 21.514 17.5874C21.4921 17.6312 21.4702 17.664 21.4374 17.7077C21.4155 17.7405 21.4046 17.7733 21.3827 17.7952C21.3171 17.8937 21.2624 18.003 21.1968 18.1124C21.0546 18.353 20.9124 18.5937 20.7483 18.8233C20.6827 18.9218 20.6062 19.0312 20.5405 19.1296L32.4515 26.7968L26.9827 35.4374C27.114 35.6233 27.2343 35.8093 27.3546 36.0062L27.3983 36.0827C27.5405 36.3015 27.5515 36.5312 27.4421 36.7608C27.4421 36.7718 27.4312 36.7827 27.4312 36.7937C27.3874 36.8702 27.3327 36.9905 27.3983 37.1327L27.453 37.2421L27.5624 37.1983C27.6718 37.1546 27.7483 37.0671 27.803 36.9905C27.814 36.9796 27.8249 36.9687 27.8249 36.9577C28.2187 36.4874 28.6452 36.0608 29.1265 35.5796C29.1812 35.5249 29.2249 35.4812 29.2796 35.4155C29.4108 35.2405 29.5421 35.0765 29.6843 34.9124C29.9249 34.6171 30.1765 34.3108 30.3843 33.9718L30.5812 33.6765C30.6249 33.6108 30.6796 33.5343 30.7233 33.4577C30.8218 33.3046 30.9312 33.1624 31.0405 33.0202C31.1827 32.8343 31.3249 32.6483 31.4452 32.4405C31.7187 31.9702 32.014 31.4999 32.2874 31.0515C32.3749 30.9093 32.4515 30.778 32.539 30.6358C32.6374 30.4718 32.7468 30.3077 32.8452 30.1546C33.0749 29.8046 33.3046 29.4874 33.5343 29.1921C33.7312 28.9515 33.9499 28.6562 34.1468 28.339C34.3983 27.9233 34.6608 27.5077 34.9233 27.103C35.0655 26.8843 35.1968 26.6874 35.328 26.5124C35.4812 26.3265 36.0499 25.6483 35.9952 25.539Z" fill="black" fill-opacity="0.17"/>
<path d="M0.951642 55.3983C0.91883 55.3983 0.886017 55.3874 0.853205 55.3765C0.776642 55.3437 0.678205 55.3108 0.601642 55.2452C0.470392 55.1358 0.339142 55.0046 0.21883 54.8515C0.109455 54.7093 0.142267 54.578 0.17508 54.5015C0.196955 54.4577 0.207892 54.4249 0.229767 54.3812C0.240705 54.3483 0.26258 54.3155 0.273517 54.2827C0.35008 54.1077 0.43758 53.9327 0.514142 53.7687C0.689142 53.4077 0.87508 53.0249 1.0282 52.653C1.32352 51.9421 1.65164 51.2421 1.96883 50.553C2.12195 50.2358 2.27508 49.9077 2.41727 49.5905C2.64696 49.0765 2.89852 48.5733 3.13914 48.0702C3.28133 47.7749 3.42352 47.4796 3.5657 47.1733C3.85008 46.5718 4.13445 45.9702 4.40789 45.3796L4.72508 44.6905C4.74696 44.6468 4.76883 44.5921 4.79071 44.5483C4.83446 44.4608 4.86727 44.3624 4.92196 44.2749C5.23914 43.6624 5.53446 43.039 5.81883 42.4265L5.87352 42.3171C6.12508 41.7702 6.39852 41.2233 6.67196 40.6874L6.77039 40.4796C6.86883 40.2718 6.9782 40.064 7.07664 39.8562C7.29539 39.4077 7.52508 38.9483 7.75477 38.4999C7.95164 38.1171 8.21414 37.603 8.45477 37.078C8.68446 36.5968 8.93602 36.1155 9.17664 35.6562C9.29696 35.4265 9.42821 35.1858 9.54852 34.9452C9.65789 34.7374 9.76727 34.5187 9.8657 34.3108L10.1938 33.6546C10.3251 33.403 10.4563 33.1515 10.5876 32.9108C10.6423 32.8015 10.7079 32.6921 10.7626 32.5827L10.7735 32.5499C10.7845 32.528 10.7954 32.5062 10.8063 32.4952C10.861 32.3858 10.9157 32.2655 10.9704 32.1562C11.0907 31.8937 11.222 31.6312 11.3641 31.3796C11.4516 31.2374 11.5282 31.0733 11.6048 30.9202C11.6923 30.7452 11.7798 30.5702 11.8782 30.3952C11.9876 30.2093 12.086 30.0124 12.1845 29.8155C12.2391 29.7062 12.2938 29.5858 12.3485 29.4765C12.4579 29.2577 12.5782 29.028 12.6985 28.8093C12.7641 28.689 12.8188 28.5796 12.8845 28.4593C12.9282 28.3718 12.9829 28.2843 13.0266 28.1858L13.1579 27.9233L13.2673 27.978C13.5516 28.1202 13.847 28.164 14.1423 28.2077L14.3063 28.2296V28.339C14.3063 28.4593 14.2626 28.5577 14.2298 28.6124C14.2298 28.6233 14.2188 28.6343 14.2188 28.6452C14.0438 28.9733 13.8798 29.3015 13.7048 29.6296L13.2782 30.4499C13.0813 30.8327 12.8845 31.2155 12.6766 31.5983C12.4251 32.0905 12.1735 32.5718 11.922 33.064L11.561 33.753C11.386 34.0921 11.2001 34.4421 11.0251 34.7812C10.9485 34.9233 10.8829 35.0874 10.8063 35.2296C10.686 35.4812 10.5657 35.7437 10.4126 35.9952C10.3141 36.1483 10.2485 36.3124 10.172 36.4874C10.0735 36.7062 9.97508 36.9358 9.82196 37.1437C9.81102 37.1546 9.80008 37.1765 9.80008 37.1983C9.80008 37.2093 9.78914 37.2093 9.78914 37.2202C9.78914 37.2202 8.76102 39.3093 8.52039 39.8015C8.40008 40.0421 8.27977 40.2827 8.17039 40.5233C7.88602 41.114 7.57977 41.7265 7.27352 42.3171C7.13133 42.5905 7.00008 42.864 6.87977 43.1374C6.81414 43.2905 6.73758 43.4437 6.66102 43.5968C6.43133 44.078 6.19071 44.5702 5.96102 45.0405C5.70946 45.5437 5.45789 46.0687 5.20633 46.5827C4.90008 47.2062 4.60477 47.8515 4.32039 48.464L4.22195 48.6827C4.07977 48.989 3.93758 49.3062 3.79539 49.6124C3.66414 49.8968 3.53289 50.1921 3.3907 50.4765C3.0407 51.2202 2.70164 51.964 2.35164 52.7077C2.01258 53.4296 1.68445 54.1515 1.34539 54.8733C1.31258 54.939 1.2907 55.0046 1.26883 55.0702C1.24695 55.1358 1.22508 55.1905 1.19227 55.2562C1.13758 55.3327 1.05008 55.3983 0.951642 55.3983ZM14.6673 27.5843C14.6345 27.5843 14.6016 27.5843 14.5688 27.5733C14.2954 27.5187 14.0329 27.4202 13.7813 27.278C13.661 27.2015 13.6173 27.0812 13.672 26.9499C13.672 26.939 13.6829 26.928 13.6829 26.9171C13.6938 26.8843 13.7048 26.8515 13.7266 26.8187C13.8798 26.5343 14.0329 26.2499 14.186 25.9546L14.2188 25.8999C14.2298 25.878 14.2407 25.8671 14.2516 25.8452L14.2845 25.7796C14.372 25.6046 14.4595 25.4296 14.547 25.2437C14.7329 24.8827 14.9188 24.5108 15.1048 24.139C15.2579 23.8546 15.411 23.5593 15.5641 23.2749C15.6954 23.0233 15.8376 22.7718 15.9688 22.5202C16.0563 22.3452 16.1548 22.1593 16.2423 21.9843C16.3188 21.8421 16.3954 21.689 16.472 21.5358C16.5813 21.3171 16.7016 21.0983 16.811 20.8905C16.8876 20.7483 16.9641 20.6062 17.0298 20.464C17.1829 20.1796 17.3251 19.8952 17.4563 19.6327C17.6751 19.2171 17.8829 18.8015 18.1016 18.3858L18.7579 17.1062C18.8563 16.9093 18.9657 16.7124 19.0641 16.5046C19.3376 15.9687 19.611 15.4218 19.8954 14.8858C20.1798 14.3499 20.4423 13.814 20.7376 13.2233C21.0438 12.5999 21.372 11.9655 21.6891 11.353C21.8532 11.0358 22.0282 10.7077 22.1923 10.3796C22.3016 10.1608 22.411 9.93115 22.5204 9.72334C22.6188 9.52646 22.7173 9.34053 22.8048 9.14365C22.9688 8.82646 23.1329 8.50928 23.286 8.20303C23.3626 8.06084 23.4282 7.92959 23.5048 7.7874C23.5048 7.77646 23.5157 7.77646 23.5157 7.76553C23.5266 7.75459 23.5266 7.74365 23.5266 7.73271C23.636 7.45928 23.7673 7.19678 23.8985 6.94521C23.9751 6.79209 24.0626 6.63896 24.1282 6.48584C24.2376 6.24521 24.3579 6.01553 24.4782 5.78584C24.6532 5.44678 24.8282 5.10772 24.9704 4.74678C25.0251 4.60459 25.1126 4.47334 25.1782 4.34209C25.211 4.2874 25.2438 4.24365 25.2657 4.18896C25.2985 4.12334 25.3641 4.07959 25.4407 4.07959C25.4845 4.07959 25.5282 4.09053 25.572 4.12334C25.6048 4.14522 25.6266 4.17803 25.6485 4.1999L25.6923 4.24365C25.8673 4.38584 26.0313 4.50615 26.2501 4.50615H26.261C26.3157 4.50615 26.3595 4.52803 26.3813 4.53896C26.3923 4.53896 26.3923 4.5499 26.4032 4.5499L26.4798 4.58272V4.67022C26.4688 4.80147 26.4141 4.88896 26.3704 4.97646C26.3595 4.99834 26.3485 5.02021 26.3266 5.04209C26.1188 5.4249 25.9548 5.78584 25.8016 6.1249C25.6704 6.43115 25.5063 6.7374 25.3532 7.03272C25.2876 7.15303 25.222 7.28428 25.1563 7.40459C25.1345 7.44834 25.1016 7.50303 25.0798 7.54678L25.0141 7.67803L24.8063 8.08272C24.6095 8.46553 24.4126 8.85928 24.2157 9.25303C24.1282 9.43896 24.0298 9.6249 23.9423 9.7999C23.8438 10.0077 23.7345 10.2155 23.636 10.4233C23.5157 10.664 23.3845 10.9046 23.2532 11.1452C23.1985 11.2546 23.1438 11.364 23.0782 11.4624C23.0563 11.5062 23.0345 11.539 23.0126 11.5827L22.6954 12.1952C22.411 12.764 22.1157 13.3327 21.8313 13.8905C21.7548 14.0437 21.6673 14.2077 21.5907 14.3718C21.4813 14.6015 21.361 14.8421 21.2407 15.0718C21.0766 15.3999 20.9016 15.7171 20.7376 16.0343L20.3438 16.789C20.2673 16.9421 20.1798 17.0952 20.1032 17.2483C20.0266 17.4015 19.9501 17.5546 19.8626 17.7077C19.6766 18.0687 19.4907 18.4187 19.3048 18.7796C19.1954 18.9874 19.086 19.1843 18.9876 19.3921L18.9329 19.5015L18.6048 20.1249C18.5282 20.2671 18.4626 20.4093 18.397 20.5515C18.2985 20.7483 18.2001 20.9452 18.1016 21.153C18.0032 21.3499 17.8938 21.5358 17.7954 21.7218C17.7298 21.8421 17.6641 21.9733 17.5985 22.0937C17.5438 22.1921 17.5001 22.2905 17.4454 22.389C17.3688 22.5312 17.3032 22.6843 17.2157 22.8374C17.1063 23.0233 17.0188 23.2093 16.9204 23.3952C16.8657 23.5155 16.8001 23.6358 16.7454 23.7562C16.6251 23.9858 16.5048 24.2155 16.3845 24.4343L16.286 24.6093C16.2313 24.7077 16.1766 24.8062 16.1329 24.9155C16.0673 25.0358 16.0126 25.1671 15.936 25.2874C15.7501 25.6155 15.5641 25.9655 15.4001 26.3046L15.2907 26.5124C15.2251 26.6327 15.1704 26.764 15.1376 26.8733C15.0938 27.0155 15.0173 27.1468 14.9516 27.2671C14.9298 27.3108 14.9079 27.3546 14.886 27.3874C14.8751 27.4858 14.8095 27.5843 14.6673 27.5843Z" fill="#D5D9E0"/>
<path d="M25.8562 34.4531C26.2828 34.8797 26.7203 35.2188 26.9828 35.7328C27.0484 35.8641 27.1469 35.9844 27.2234 36.1156C27.3437 36.3234 27.3656 36.5313 27.2672 36.7719C27.1359 37.1109 26.95 37.4063 26.7312 37.6906C26.6547 37.8 26.5562 37.8766 26.4359 37.9203C25.6156 38.2375 24.8391 38.1609 24.0625 37.7016C25.0141 36.8156 25.5391 35.7219 25.8562 34.4531Z" fill="black" fill-opacity="0.24"/>
<path d="M26.6328 4.2C26.5563 4.2 26.4907 4.16719 26.3703 4.1125C26.1516 4.00312 25.9547 3.89375 25.8016 3.69687C25.7141 3.57656 25.6266 3.40156 25.7578 3.18281C25.8672 2.99688 25.9657 2.81094 26.0641 2.60312L26.1953 2.34062L26.2719 2.1875L26.3922 2.31875L26.4578 2.38437C26.6766 2.625 26.8735 2.83281 27.1578 2.86563L27.2125 2.87656L27.2453 2.92031C27.3438 3.05156 27.2891 3.16094 27.2563 3.21563L27.2453 3.22656L27.2344 3.28125C27.136 3.5 27.0266 3.72969 26.9172 3.94844C26.8625 4.05781 26.786 4.2 26.6328 4.2Z" fill="#D5D9E0"/>
<path d="M26.1406 2.43896C26.1078 2.49365 26.0859 2.54834 26.0531 2.60303C25.9547 2.7999 25.8562 2.99678 25.7469 3.18271C25.6156 3.40146 25.7031 3.57646 25.7906 3.69678C25.9437 3.90459 26.1406 4.01396 26.3594 4.1124C26.4797 4.16709 26.5453 4.1999 26.6219 4.1999C26.775 4.1999 26.8515 4.05771 26.9062 3.94834C27.0156 3.72959 27.125 3.4999 27.2234 3.28115L27.2453 3.22646L27.2562 3.21553C27.2672 3.19365 27.2781 3.17178 27.289 3.13897C26.7969 3.13897 26.3594 2.85459 26.1406 2.43896Z" fill="#D5D9E0"/>
<path d="M14.2187 28.2186H14.164C14.1202 28.2186 14.0656 28.2076 14.0218 28.2076C13.814 28.1967 13.5952 28.1748 13.3874 28.0764C13.2452 28.0107 13.2015 27.8904 13.2562 27.7482C13.2562 27.7373 13.2671 27.7264 13.2671 27.7154C13.2781 27.6936 13.289 27.6607 13.2999 27.6389C13.3437 27.5623 13.3765 27.4857 13.3984 27.4311C13.4531 27.2998 13.5077 27.1795 13.6499 27.1795C13.7484 27.1795 13.8577 27.2451 14.0765 27.4092C14.0984 27.4201 14.1202 27.4311 14.164 27.442C14.1859 27.442 14.2077 27.4529 14.2296 27.4529C14.3171 27.4748 14.4156 27.5076 14.5249 27.5295L14.8421 27.617L14.7546 27.7592C14.7327 27.792 14.7218 27.8139 14.6999 27.8467C14.6671 27.9014 14.6343 27.9451 14.6015 27.9889C14.5031 28.142 14.3718 28.2186 14.2187 28.2186ZM26.414 4.58262H26.3812C26.1624 4.56074 25.9765 4.48418 25.8452 4.41856H25.8234C25.8015 4.39668 25.7687 4.38574 25.7468 4.3748C25.6812 4.33105 25.6156 4.29824 25.5499 4.24355C25.3859 4.10137 25.364 3.95918 25.4624 3.76231C25.4843 3.71856 25.539 3.62012 25.6484 3.62012C25.7359 3.62012 25.7906 3.6748 25.8343 3.72949C25.9984 3.92637 26.1952 4.04668 26.4577 4.1123C26.6437 4.15605 26.6656 4.27637 26.6546 4.36387C26.6546 4.49512 26.5562 4.58262 26.414 4.58262Z" fill="white" fill-opacity="0.44"/>
<path d="M16.8875 24.5218C17.1719 24.0515 17.4781 23.603 17.7734 23.1655C17.85 23.0562 17.9156 22.9468 17.9922 22.8374C18.375 22.2577 18.7359 21.6452 19.0969 21.0546C19.4469 20.4749 19.7969 19.8733 20.1797 19.2937C21.1422 17.8499 21.8641 16.6358 22.4656 15.4765C23.0891 14.2515 23.6031 12.9499 24.0953 11.6921L24.2375 11.3312C24.5219 10.5983 24.8281 9.83272 25.0469 9.07803C25.1562 8.69521 25.2547 8.30147 25.3531 7.91865C25.375 7.82021 25.4078 7.71084 25.4406 7.6124C25.5172 7.36084 25.5937 7.09834 25.6047 6.85772C25.4844 7.02178 25.3859 7.21865 25.2984 7.40459C25.2656 7.48115 25.2219 7.55772 25.1891 7.63428C25.0359 7.92959 24.85 8.27959 24.6859 8.61865C24.5656 8.87022 24.4344 9.12178 24.3031 9.3624C24.1172 9.72334 23.9312 10.0952 23.7453 10.4562C23.1109 11.7358 22.4766 12.9937 21.8531 14.1858C21.2734 15.3124 20.6828 16.4718 20.1141 17.5874C19.425 18.9546 18.7031 20.3546 17.9922 21.7327C17.6531 22.378 17.325 23.0343 16.9969 23.6687L16.8766 23.9093C16.7016 24.2483 16.5156 24.5983 16.3078 25.003L16.0453 25.4952C16.0234 25.539 16.0016 25.5827 15.9687 25.6265C15.8922 25.7577 15.8047 25.8999 15.7828 26.0202C15.9359 25.9108 16.0562 25.7358 16.1656 25.5718C16.2094 25.4952 16.2641 25.4296 16.3078 25.3749C16.5266 25.0796 16.7234 24.7952 16.8875 24.5218ZM13.8578 28.0546H13.9125C13.9891 28.0655 14.0437 28.0655 14.0984 28.0655C14.3609 28.0655 14.4594 27.978 14.6234 27.7046L14.4922 27.6718C14.3937 27.6499 14.2953 27.6171 14.1969 27.5952C14.0984 27.5624 14.0219 27.5187 13.9344 27.464C13.8797 27.4312 13.8359 27.3983 13.7703 27.3655C13.7266 27.3437 13.6828 27.3327 13.6609 27.3327C13.5844 27.3327 13.5516 27.4093 13.5078 27.5077C13.4969 27.5296 13.4859 27.5515 13.475 27.5843L13.4422 27.6499C13.3875 27.7483 13.3437 27.8358 13.4203 27.9233C13.4859 28.0327 13.7156 28.0437 13.8578 28.0546ZM13.9891 28.7983C14.0109 28.7655 14.0219 28.7327 14.0437 28.6999C14.0766 28.6343 14.1203 28.5687 14.1422 28.503C14.175 28.4265 14.175 28.3827 14.1641 28.3608C14.1531 28.339 14.1094 28.339 14.0437 28.328C14.0219 28.328 14 28.3171 13.9672 28.3171C13.7156 28.2733 13.4641 28.2187 13.2234 28.0983C10.1609 33.9937 6.16874 41.7593 2.54843 49.6343C2.41718 49.9296 2.27499 50.2249 2.14374 50.5093C1.85937 51.1108 1.57499 51.7343 1.30155 52.3468C1.09374 52.828 0.907803 53.2546 0.710928 53.6702L0.623428 53.8562C0.546866 54.0093 0.470303 54.1733 0.404678 54.3265C0.284366 54.589 0.251553 54.6874 0.459366 54.9171L0.470303 54.928C0.568741 55.0374 0.732803 55.2233 0.896866 55.2343H0.918741C1.04999 55.2343 1.09374 55.114 1.13749 54.9827L1.1703 54.8843C1.31249 54.5452 1.47655 54.1952 1.64062 53.8671C1.71718 53.714 1.7828 53.5608 1.85937 53.4077L2.23124 52.6093C2.53749 51.953 2.84374 51.2968 3.14999 50.6296C4.71405 47.2718 6.43124 43.6952 8.56405 39.3858C9.54843 37.4062 10.5109 35.4702 11.5062 33.5671C11.8781 32.8562 12.25 32.1343 12.6219 31.4343C12.8078 31.0843 12.9828 30.7343 13.1687 30.3843C13.3109 30.1218 13.4531 29.8483 13.5844 29.5858C13.7156 29.3233 13.8469 29.0608 13.9891 28.7983ZM14.2187 27.3327L14.2516 27.3437C14.2734 27.3546 14.2844 27.3546 14.3062 27.3655C14.3937 27.3983 14.525 27.4421 14.6234 27.4421C14.6562 27.4421 14.6891 27.4312 14.7109 27.4202C14.8312 27.3655 14.9297 27.103 14.9844 26.9499C14.9953 26.928 15.0062 26.9062 15.0062 26.8843C15.2359 26.3155 15.5312 25.7577 15.8156 25.2218C15.9141 25.0358 16.0234 24.839 16.1219 24.6421C17.5656 21.8749 19.1406 18.8562 21.0766 15.1265C21.2406 14.8202 21.3937 14.514 21.5578 14.1968C22.3016 12.764 23.0672 11.2983 23.7781 9.82178C24.2156 8.9249 24.6641 8.0499 25.0906 7.22959L25.1016 7.20772C25.3094 6.80303 25.5281 6.3874 25.725 5.96084C25.8234 5.74209 25.9219 5.52334 26.0422 5.30459C26.075 5.2499 26.1078 5.19522 26.1406 5.12959C26.2281 4.9874 26.3266 4.82334 26.3375 4.68115C26.2719 4.65928 26.1953 4.6374 26.1297 4.62646C26.0422 4.60459 25.9437 4.59365 25.8562 4.53896C25.8015 4.50615 25.7469 4.45147 25.6922 4.39678C25.6156 4.33115 25.55 4.25459 25.4844 4.24365H25.4625C25.2984 4.24365 25.1016 4.7249 25.0031 4.9874C24.9812 5.05303 24.9594 5.10771 24.9375 5.15146C24.7516 5.54521 24.5437 5.9499 24.3469 6.33272C24.15 6.70459 23.9531 7.09834 23.7672 7.49209C23.2094 8.68428 22.5859 9.87647 21.9953 11.0249C21.7656 11.4733 21.525 11.9327 21.2953 12.3812C20.8031 13.3327 20.3 14.3062 19.8187 15.2468C18.6703 17.4671 17.4781 19.7749 16.3516 22.0499C15.7937 23.1655 15.2031 24.2921 14.6344 25.3749C14.3937 25.8343 14.1422 26.3046 13.9016 26.764C13.8906 26.7749 13.8797 26.7968 13.8687 26.8187C13.8141 26.9062 13.7484 27.0374 13.7922 27.1249C13.8469 27.2124 14.0984 27.2999 14.2187 27.3327Z" fill="white" fill-opacity="0.44"/>
<path d="M27.3437 35.7325C27.3656 35.7544 27.3765 35.7872 27.3984 35.8091C27.5187 35.9841 27.639 36.17 27.6609 36.3888C27.6718 36.4763 27.6281 36.5966 27.5843 36.695C27.5406 36.8263 27.4859 36.9466 27.5297 37.045C27.639 36.9903 27.7265 36.881 27.8031 36.7716C27.8359 36.7278 27.8578 36.695 27.8906 36.6622C28.0328 36.4981 28.1859 36.3231 28.3718 36.1372C28.4593 36.0497 28.5468 35.9513 28.6343 35.8638C28.8859 35.6013 29.1484 35.3388 29.389 35.0435C29.739 34.6169 30.0562 34.1575 30.3734 33.72C30.5812 33.4247 30.8 33.1185 31.0297 32.8231C31.4125 32.3091 31.7515 31.7403 32.0687 31.1825C32.2547 30.8763 32.4406 30.5591 32.6265 30.2528C32.8672 29.87 33.1406 29.4981 33.4031 29.1372C33.6875 28.7544 33.9718 28.3497 34.2343 27.945L34.3437 27.77C34.5625 27.42 34.7812 27.0591 35.0109 26.72C35.0328 26.6872 35.0656 26.6544 35.0875 26.6106C35.1312 26.556 35.175 26.5013 35.2078 26.4466C35.4593 26.2497 35.8968 25.4294 36.039 25.1231C36.0828 25.0247 36.1265 24.9372 36.1703 24.8606C36.4328 24.3575 36.6625 23.8981 36.9031 23.4497C37.0234 23.231 37.1437 23.0122 37.275 22.8044L37.6359 22.181C37.6687 22.1153 37.7015 22.0388 37.7343 21.9731C37.7781 21.8638 37.8218 21.7544 37.8984 21.656C37.9531 21.5685 38.0187 21.481 38.0843 21.3935C38.1718 21.2731 38.2593 21.1419 38.3468 21.0106C38.8828 20.1685 39.3531 19.3372 39.9109 18.331C39.9547 18.2435 40.0093 18.1669 40.0531 18.0794C40.2609 17.7185 40.4797 17.3466 40.589 16.931C40.7093 16.5153 40.589 16.0888 40.4797 15.6841C40.4687 15.6403 40.4578 15.6075 40.4468 15.5638C40.4031 15.3997 40.3265 15.2685 40.25 15.1263C40.2172 15.0716 40.1843 15.006 40.1515 14.9403C40.1078 14.8638 40.075 14.7763 40.0422 14.6997C39.9765 14.5575 39.9109 14.4044 39.8343 14.2731C39.5937 13.8903 39.2656 13.5622 38.8937 13.2013C38.139 12.4794 37.1984 11.9216 36.389 11.4622C36.2468 11.3747 36.0937 11.2981 35.9406 11.2216C35.6562 11.0685 35.3718 10.9153 35.0875 10.7403C34.7703 10.5435 34.4422 10.4122 34.0922 10.27C33.9937 10.2263 33.8843 10.1825 33.7859 10.1388C33.3484 9.95283 32.9218 9.71221 32.5172 9.48252L32.3968 9.41689C32.2437 9.32939 32.0906 9.23096 31.9375 9.13252C31.7078 8.97939 31.4672 8.81533 31.2156 8.70596C30.8656 8.55283 30.5593 8.32314 30.264 8.09346L29.8703 7.79814C29.7828 7.74346 29.6953 7.67783 29.6078 7.62314C29.2468 7.37158 28.875 7.12002 28.5468 6.83564C28.0765 6.42002 27.7156 6.04814 27.4531 5.67627C27.3437 5.52314 27.2015 5.32627 27.0375 5.11846C26.9937 5.06377 26.95 4.98721 26.9172 4.91064C26.8515 4.80127 26.7859 4.68096 26.6984 4.61533C26.6437 4.73564 26.6 4.84502 26.5453 4.95439C26.414 5.24971 26.2828 5.52314 26.2062 5.86221C26.1406 6.13564 26.075 6.42002 26.0093 6.69346C25.9437 6.94502 25.889 7.20752 25.8234 7.45908C25.5718 8.50908 25.2875 9.49346 24.9484 10.456C24.1718 12.6653 23.4281 14.4263 22.6187 16.0122L22.5968 16.056C22.4984 16.2419 22.4 16.4388 22.2906 16.6356C22.2468 16.7122 22.2031 16.7778 22.1484 16.8544C22.0718 16.9638 21.9953 17.0731 21.9515 17.1935C21.9297 17.2481 21.5906 17.7622 21.6125 17.795C21.4593 18.0138 21.3172 18.2544 21.1859 18.4841C21.0656 18.7028 20.9343 18.9216 20.7922 19.1294C20.4422 19.6544 20.0922 20.1903 19.764 20.7263C19.589 20.9997 19.414 21.2841 19.239 21.5575C19.1078 21.7653 18.9765 21.9841 18.8562 22.2028C18.7468 22.3997 18.6265 22.5966 18.5062 22.7935C18.3422 23.056 18.1562 23.3185 17.9922 23.57C17.8718 23.7341 17.7515 23.9091 17.6422 24.0841C17.5218 24.2591 17.4125 24.445 17.314 24.631C17.1828 24.8497 17.0625 25.0685 16.9093 25.2763C16.7562 25.495 16.5922 25.7247 16.4281 25.9325C16.3187 26.0856 16.1984 26.2388 16.089 26.3919C15.9797 26.545 15.8703 26.72 15.7609 26.8731C15.6187 27.081 15.4765 27.2997 15.3234 27.5075L15.225 27.606C15.1156 27.7044 14.9734 27.8466 15.0172 27.9231C15.0609 28.0106 15.3453 28.0763 15.5422 28.131C15.6406 28.1528 15.7172 28.1747 15.7609 28.1966C15.925 28.2622 16.1 28.3278 16.275 28.3825C16.4937 28.4591 16.7234 28.5356 16.9422 28.6341C17.4125 28.8528 17.8718 29.0716 18.3312 29.2794C19.239 29.695 20.1906 30.1981 21.2187 30.8106C21.4265 30.9419 21.6343 31.0841 21.8312 31.2153C22.039 31.3575 22.2468 31.5106 22.4656 31.6419C22.564 31.6966 22.6625 31.7513 22.7609 31.8169C23.1437 32.0356 23.5375 32.2653 23.9093 32.5278C24.7625 33.1294 25.5828 33.7856 26.4031 34.5403C26.7312 34.8903 27.0484 35.2622 27.3437 35.7325ZM26.6109 4.05752C26.6437 4.05752 26.6765 4.04658 26.6984 4.03564C26.7859 3.99189 26.8515 3.80596 26.9062 3.67471C26.9281 3.63096 26.939 3.59814 26.95 3.57627C26.9609 3.54346 26.9828 3.51064 27.0156 3.46689C27.0593 3.40127 27.114 3.30283 27.1468 3.22627C26.7531 3.18252 26.4031 2.97471 26.1734 2.66846C25.9875 2.97471 25.7468 3.36846 25.9218 3.62002C26.0203 3.76221 26.3812 4.05752 26.6109 4.05752ZM25.8562 4.25439C25.8781 4.26533 25.9 4.27627 25.9109 4.28721C25.9984 4.33096 26.25 4.44033 26.414 4.44033C26.4687 4.44033 26.5015 4.42939 26.5234 4.40752C26.5453 4.38564 26.5453 4.36377 26.5453 4.32002C26.5343 4.23252 26.3812 4.17783 26.25 4.13408C26.1843 4.11221 26.1187 4.09033 26.075 4.06846C26.0312 4.03564 25.9765 3.99189 25.9218 3.93721C25.8343 3.84971 25.7468 3.76221 25.6812 3.76221C25.6484 3.76221 25.6265 3.77314 25.6047 3.80596C25.5609 3.86064 25.55 3.90439 25.55 3.95908C25.5828 4.09033 25.7359 4.18877 25.8562 4.25439Z" fill="white" fill-opacity="0.44"/>
<path d="M25.4954 38.0949C25.5938 38.0949 25.6813 38.084 25.7798 38.073C26.0532 38.0402 26.3813 37.9746 26.6001 37.8105C26.786 37.6684 26.9173 37.4387 27.0376 37.2309L27.0595 37.1871C27.1798 36.9684 27.322 36.7277 27.322 36.4762C27.322 36.2574 27.2017 36.0824 27.0813 35.9074C27.0485 35.8527 27.0048 35.798 26.972 35.7434C26.7313 35.3387 26.4251 35.0324 26.097 34.7043L25.8673 34.4746C25.5173 35.8309 24.9157 36.9137 24.0845 37.6902C24.5329 37.9637 25.0142 38.0949 25.4954 38.0949Z" fill="white" fill-opacity="0.44"/>
<path d="M32.7796 30.625C32.7031 30.6687 32.6484 30.7672 32.6046 30.8656C32.5828 30.8875 32.6812 30.7672 32.7796 30.625Z" fill="white" fill-opacity="0.44"/>
<path d="M27.2891 2.96396C27.9173 2.96396 28.4266 2.45469 28.4266 1.82646C28.4266 1.19824 27.9173 0.688965 27.2891 0.688965C26.6609 0.688965 26.1516 1.19824 26.1516 1.82646C26.1516 2.45469 26.6609 2.96396 27.2891 2.96396Z" fill="#D5D9E0"/>
<path d="M27.1359 2.12197C27.4742 2.12197 27.7484 1.84775 27.7484 1.50947C27.7484 1.1712 27.4742 0.896973 27.1359 0.896973C26.7977 0.896973 26.5234 1.1712 26.5234 1.50947C26.5234 1.84775 26.7977 2.12197 27.1359 2.12197Z" fill="#EEF0F3"/>
<path d="M41.0484 31.3574L54.9281 32.3746C54.8516 32.2434 54.7641 32.1121 54.6875 31.9918C54.4797 31.6637 54.2391 31.3465 53.9984 31.0512C53.9547 31.0074 53.9219 30.9527 53.8781 30.898L38.5875 29.7715L41.0484 31.3574ZM37.3953 37.0449L34.9453 35.459L42.7656 49.798C42.7875 49.7543 42.7984 49.7215 42.8203 49.6777C42.8969 49.5027 42.9953 49.3277 43.0828 49.1637L43.0938 49.1418C43.2359 48.8793 43.3891 48.6059 43.5531 48.3324L37.3953 37.0449Z" fill="black" fill-opacity="0.17"/>
<path d="M49.1203 38.106L35.6453 29.4325L40.4359 22.0825C40.3484 21.995 40.2718 21.9075 40.1843 21.82C39.8015 21.4263 39.4187 21.0216 39.1343 20.5403C39.1015 20.4747 39.0359 20.4419 38.9593 20.4419C38.8937 20.4419 38.8281 20.4856 38.7843 20.5513C38.7187 20.6606 38.6422 20.77 38.5765 20.8794C38.489 21.0216 38.3906 21.1638 38.3031 21.306C38.2593 21.3716 38.2156 21.4372 38.1718 21.4919C38.0953 21.6013 38.0187 21.7106 37.9531 21.831C37.8984 21.9294 37.8437 22.0169 37.8 22.1153C37.5812 22.5091 37.3515 22.9138 37.1437 23.3294C36.9468 23.7341 36.7281 24.1497 36.5203 24.5435C36.3453 24.8716 36.1703 25.2106 35.9953 25.5388C35.9406 25.6481 35.8859 25.7575 35.8203 25.8341C35.6343 26.0528 35.4812 26.2825 35.3281 26.5122L35.1312 26.8075C35.0109 26.9825 34.8906 27.1685 34.7812 27.3544C34.7593 27.3872 34.7375 27.42 34.7265 27.4528C34.639 27.595 34.5406 27.7481 34.4531 27.9013L34.3656 28.0325C34.1031 28.4481 33.8297 28.8747 33.5234 29.2575C33.3812 29.4325 33.239 29.6294 33.064 29.881C32.9437 30.0669 32.5062 30.581 32.539 30.7013C32.4078 30.92 32.2765 31.1388 32.1343 31.3685C32.025 31.5435 31.9156 31.7294 31.8172 31.9044L31.7734 31.97C31.5656 32.32 31.3468 32.67 31.1062 32.9981C30.8328 33.3591 30.5703 33.731 30.3187 34.1028C30.2093 34.2669 30.1 34.42 29.9797 34.5841C29.6953 34.956 29.3781 35.3388 29.0062 35.7325L28.7437 35.995C28.6015 36.1372 28.4593 36.2794 28.3281 36.4325C28.0328 36.7935 27.6937 37.1325 27.3656 37.4606L26.95 37.8763L26.9281 37.8981C26.8953 37.9419 26.8406 37.9856 26.8187 37.9856C26.6656 37.9856 26.5453 38.0403 26.414 38.0841C26.3703 38.106 26.3265 38.1169 26.2828 38.1278C26.0093 38.2153 25.7468 38.2591 25.4734 38.27C25.2328 38.27 24.9922 38.2372 24.7515 38.1716C24.6859 38.1497 24.6203 38.1388 24.5547 38.1169C24.5 38.095 24.4453 38.0841 24.3906 38.0622C24.3797 38.0622 24.3578 38.0513 24.3468 38.0513C24.2922 38.0513 24.2375 38.0731 24.2047 38.1169C24.1609 38.1606 24.139 38.2481 24.1828 38.3138L24.2156 38.3685C24.2593 38.456 24.3031 38.5435 24.3687 38.62C24.5656 38.8935 24.7734 39.1888 25.025 39.5169C25.2437 39.8122 25.4843 40.0419 25.7468 40.2278L25.9109 40.3372C26.2828 40.5888 26.6656 40.8513 27.0593 41.081C27.3437 41.245 27.639 41.3981 27.9453 41.5403L33.414 32.8888L47.6875 42.12C47.764 41.8356 47.9172 41.1575 47.95 41.07C47.9609 41.0372 47.9718 41.0044 47.9718 40.9825C48.0703 40.6981 48.1578 40.4028 48.2343 40.1075C48.3 39.8669 48.3765 39.6044 48.4531 39.3747C48.5734 39.0138 48.7484 38.6747 48.9562 38.3466C49.0109 38.2591 49.0656 38.1825 49.1203 38.106Z" fill="black" fill-opacity="0.17"/>
<path d="M55.6281 32.9437C55.5844 32.8781 55.5406 32.8125 55.5078 32.7578C55.0266 31.9375 54.4578 31.1937 54.0203 30.625C53.2656 29.6624 52.325 28.8531 51.4172 28.0765C51.0891 27.8031 50.75 27.5078 50.4328 27.2234C49.7875 26.6437 49.1313 26.1843 48.4531 25.8453C47.9391 25.5828 47.3922 25.3859 46.8672 25.189C46.6703 25.1124 46.4625 25.0359 46.2547 24.9593C45.9266 24.8281 45.5984 24.6749 45.2813 24.5328C44.8438 24.3359 44.3953 24.1281 43.925 23.964C43.1156 23.6906 42.361 23.2531 41.6609 22.8265C40.9281 22.3781 40.3813 21.7984 39.8016 21.1749L39.7141 21.0765C39.6922 21.0437 39.6594 21.0218 39.6266 20.989C39.4078 20.7593 39.1016 20.4531 39.211 20.1468C39.2985 19.8953 39.4516 19.6546 39.6047 19.414C39.6813 19.3046 39.7469 19.1953 39.8016 19.0859C39.8344 19.0203 39.8781 18.9546 39.9109 18.8999C40.0859 18.5828 40.2719 18.2656 40.436 17.9374C40.4797 17.839 40.5234 17.7296 40.5672 17.6312C40.611 17.5218 40.6656 17.4015 40.7203 17.2921C40.7531 17.2374 40.786 17.1718 40.8188 17.1171C40.8844 17.0187 40.95 16.9203 40.9719 16.8109C41.0594 16.5046 40.95 16.1437 40.8625 15.8265C40.8406 15.7499 40.8188 15.6843 40.8078 15.6187C40.7422 15.3781 40.6438 15.1812 40.5344 14.9734C40.4797 14.8749 40.425 14.7656 40.3813 14.6562C39.725 13.2124 38.325 12.2499 36.8922 11.4296C36.1813 11.014 35.3719 10.5437 34.5406 10.1718C34.3875 10.1062 34.2234 10.0406 34.0703 9.97495C33.8516 9.88745 33.6219 9.78901 33.4031 9.67964L33.3375 9.64682C32.9985 9.47182 32.6484 9.29682 32.2985 9.12182C31.8281 8.8812 31.4125 8.55307 31.0078 8.24682C30.7563 8.04995 30.4938 7.85307 30.2203 7.66713L30.0563 7.55776C29.4219 7.14213 28.8313 6.74838 28.2953 6.21245C27.9781 5.89526 27.6938 5.54526 27.4531 5.19526C27.4203 5.15151 27.3875 5.09682 27.3438 5.04213C27.1688 4.80151 26.9391 4.48432 26.9172 4.23276C26.9063 4.07963 27.0047 3.90463 27.0922 3.75151C27.1141 3.70776 27.1469 3.66401 27.1688 3.62026L27.1906 3.57651L27.3547 3.24838C28.1094 3.21557 28.711 2.59213 28.7 1.83745C28.6891 1.06088 28.0547 0.437446 27.2891 0.448384C26.5125 0.459321 25.8891 1.0937 25.9 1.85932C25.9 2.06713 25.9438 2.26401 26.0313 2.43901L25.9 2.73432C25.8672 2.81088 25.8344 2.88745 25.8016 2.95307C25.4188 3.75151 25.0141 4.56088 24.6313 5.31557C24.4016 5.76401 24.1828 6.20151 23.9531 6.64995C23.3516 7.84213 22.7281 9.06713 22.1156 10.2703C21.6672 11.1343 21.2188 12.0093 20.7813 12.8624C19.6985 14.9624 18.5719 17.1281 17.511 19.2718C16.7563 20.8031 15.9797 22.2906 15.2031 23.7015C14.8313 24.3796 14.4813 25.0796 14.1313 25.7578C13.7375 26.5453 13.3219 27.3656 12.8844 28.1421C11.9766 29.7609 11.1453 31.4015 10.5328 32.6593C10.1172 33.4906 9.69064 34.3218 9.26408 35.1312C8.90314 35.8312 8.52033 36.5531 8.15939 37.264C6.54064 40.4906 4.96564 43.6515 3.4672 46.8562C3.18283 47.4687 2.88751 48.0921 2.60314 48.7046C2.12189 49.7328 1.61876 50.8046 1.13751 51.8546C0.940638 52.2703 0.7547 52.6749 0.568763 53.0906C0.514075 53.2109 0.44845 53.3312 0.382825 53.4624C0.240638 53.7359 0.0984503 54.0093 0.0218878 54.2828C-0.0656122 54.589 0.306263 55.125 0.514075 55.3218C0.634388 55.4312 0.918763 55.5953 1.13751 55.5953C1.1922 55.5953 1.24689 55.5843 1.29064 55.5625C1.41095 55.4968 1.46564 55.3218 1.50939 55.1796C1.52033 55.1359 1.53126 55.0921 1.55314 55.0593C1.60783 54.9171 1.67345 54.764 1.73908 54.6328C1.76095 54.5781 1.78283 54.5343 1.8047 54.4796C1.99064 54.064 2.17658 53.6484 2.37345 53.2328C2.7672 52.3687 3.15001 51.5375 3.52189 50.75C3.89376 49.9515 4.27658 49.1421 4.65939 48.3546C5.05314 47.5343 5.45783 46.6703 5.85158 45.8281C6.91251 43.5421 8.06095 41.2343 9.16564 39.014C9.5922 38.1609 10.0297 37.2749 10.4563 36.3999C10.9594 35.3718 11.4953 34.3437 12.0094 33.3374C12.261 32.8453 12.5235 32.3312 12.786 31.8281L12.9172 31.5656C13.2781 30.8546 13.65 30.1218 14.0328 29.3999L14.0547 29.3562L14.3828 28.7328C14.4047 28.7 14.4156 28.6562 14.4375 28.6124C14.4813 28.514 14.5359 28.3937 14.5906 28.3281C14.6453 28.2734 14.7 28.2515 14.7766 28.2515C14.875 28.2515 14.9734 28.2843 15.0719 28.3171C15.1047 28.3281 15.1484 28.339 15.1813 28.3499C16.8 28.7984 18.2766 29.5531 19.8953 30.4281C20.0156 30.4937 20.1469 30.5593 20.2672 30.625C20.5625 30.7781 20.8688 30.9421 21.1641 31.1171C21.35 31.2265 21.525 31.3468 21.6891 31.4562C21.8531 31.5656 22.0281 31.6859 22.2031 31.7953C22.8813 32.189 23.6578 32.6375 24.3578 33.1625C24.4125 33.2062 24.4781 33.25 24.5438 33.2937C24.85 33.5124 25.1891 33.764 25.3969 34.0375C25.6266 34.3437 25.4844 34.8359 25.3641 35.1859C25.0797 35.9953 24.6969 36.6734 24.2266 37.1984C24.1938 37.2312 24.1391 37.2859 24.0735 37.3406C23.9313 37.4609 23.7563 37.614 23.7344 37.7234C23.7234 37.8218 23.7672 37.8656 23.8109 37.9203C23.8438 37.9421 23.8656 37.9749 23.8984 38.0187C23.9422 38.0843 23.9641 38.1609 23.986 38.2374C24.0078 38.3031 24.0297 38.3687 24.0516 38.4234C24.1391 38.5984 24.2485 38.7515 24.3469 38.9046C24.4125 39.0031 24.4781 39.1015 24.5438 39.189C24.7188 39.4515 24.9047 39.714 25.1125 39.9546C25.3641 40.239 25.6922 40.4687 25.9984 40.6765L26.0094 40.6875C26.775 41.2125 27.4969 41.6281 28.1969 41.9343C28.9406 42.2625 29.7281 42.5031 30.4938 42.7328L30.6469 42.7765C30.811 42.8312 30.975 42.875 31.1391 42.9187C31.4016 42.9953 31.686 43.0609 31.9485 43.1593C32.3094 43.3015 32.6375 43.4765 32.9875 43.6843C33.7531 44.1218 34.4313 44.5265 35.0328 45.0734C36.4656 46.3859 37.625 47.5343 38.6203 48.8796C38.7078 49 38.7953 49.1093 38.8828 49.2296C39.2875 49.7656 39.7031 50.3234 40.0641 50.914C40.2063 51.1546 40.3813 51.3953 40.5453 51.6359C40.8516 52.0843 41.1797 52.5437 41.3766 53.0468L41.3875 53.0687L41.3985 53.0468C41.5078 52.9046 41.5516 52.7843 41.6172 52.6421C41.6281 52.6203 41.6391 52.5984 41.65 52.5656C41.6719 52.5109 41.7156 52.4671 41.7485 52.4125C41.7813 52.3687 41.825 52.314 41.8469 52.2593C41.9891 51.9749 42.1313 51.6796 42.2735 51.3953L42.3719 51.1984C42.5031 50.9359 42.6344 50.6515 42.7547 50.389C42.9844 49.8968 43.2141 49.3937 43.4875 48.9125C44.4063 47.3046 45.3688 45.9484 46.4516 44.7781C47.0422 44.1328 47.425 43.5203 47.6875 42.8421C47.8516 42.4156 47.9391 41.9671 48.0266 41.5296C48.1031 41.1359 48.1906 40.7312 48.3219 40.3484C48.5844 39.5609 48.8688 38.8062 49.3938 38.0953C49.5141 37.9421 49.6125 37.7671 49.7219 37.6031C49.8531 37.4062 49.9734 37.1984 50.1266 37.0125C50.3672 36.6953 50.6406 36.4109 50.8703 36.1812C51.4281 35.6124 52.1172 35.1093 52.8172 34.7703C53.2219 34.5734 53.6047 34.5296 54.0531 34.464H54.0641C54.2609 34.4421 54.4578 34.3875 54.6438 34.3437C54.8516 34.2999 55.0594 34.2453 55.2672 34.2234C55.3219 34.2124 55.3766 34.2124 55.4313 34.2124C55.6938 34.2015 56 34.1906 56.0219 33.8296C56.0109 33.5343 55.7922 33.2062 55.6281 32.9437ZM27.2781 0.689009C27.9125 0.678071 28.4266 1.19213 28.4266 1.81557C28.4375 2.44995 27.9235 2.96401 27.3 2.96401C26.6656 2.97495 26.1516 2.46088 26.1516 1.83745C26.1516 1.21401 26.6547 0.699946 27.2781 0.689009ZM26.1625 2.65776C26.3922 2.96401 26.7313 3.17182 27.136 3.21557C27.1031 3.29213 27.0484 3.39057 27.0047 3.4562C26.9828 3.49995 26.95 3.5437 26.9391 3.56557C26.9281 3.58745 26.9172 3.6312 26.8953 3.66401C26.8406 3.78432 26.775 3.9812 26.6875 4.02495C26.6656 4.03588 26.6328 4.04682 26.6 4.04682C26.3703 4.04682 26.0094 3.75151 25.9109 3.59838C25.7469 3.3687 25.9766 2.96401 26.1625 2.65776ZM25.6047 3.8062C25.6266 3.78432 25.6485 3.76245 25.6813 3.76245C25.7578 3.76245 25.8453 3.84995 25.9219 3.93745C25.9766 3.99213 26.0203 4.03588 26.075 4.0687C26.1188 4.09057 26.1844 4.11245 26.25 4.13432C26.3922 4.17807 26.5453 4.23276 26.5453 4.32026C26.5453 4.35307 26.5453 4.38588 26.5234 4.40776C26.5016 4.42963 26.4688 4.44057 26.4141 4.44057C26.25 4.44057 25.9984 4.3312 25.9109 4.28745C25.8891 4.27651 25.8781 4.26557 25.8563 4.25463C25.7359 4.17807 25.5828 4.07963 25.5609 3.95932C25.55 3.91557 25.561 3.86088 25.6047 3.8062ZM14.1422 28.5031C14.1203 28.5687 14.0766 28.6343 14.0438 28.6999C14.0219 28.7328 14.011 28.7656 13.9891 28.7984C13.8578 29.0609 13.7156 29.3234 13.5844 29.5749C13.4422 29.8374 13.3 30.1109 13.1688 30.3734C12.9828 30.7234 12.8078 31.0734 12.6219 31.4234C12.261 32.1234 11.8891 32.8453 11.5063 33.5562C10.5 35.4703 2.53751 51.9531 2.23126 52.6093L1.85939 53.4078C1.78283 53.5609 1.7172 53.714 1.64064 53.8671C1.48751 54.1953 1.32345 54.5453 1.17033 54.8843L1.13751 54.9828C1.09376 55.114 1.05001 55.2343 0.918763 55.2343H0.896888C0.743763 55.2234 0.5797 55.0375 0.470325 54.9281L0.459388 54.9171C0.251575 54.6875 0.284388 54.589 0.4047 54.3265C0.481263 54.1734 0.557825 54.0093 0.62345 53.8562L0.71095 53.6703C0.918763 53.2437 1.1047 52.8171 1.30158 52.3468C1.57501 51.7234 1.85939 51.0999 2.14376 50.5093C2.27501 50.2249 2.4172 49.9296 2.54845 49.6343C6.16876 41.7593 10.15 33.9937 13.2235 28.0984C13.4641 28.2187 13.7266 28.2734 13.9672 28.3171C13.9891 28.3171 14.0219 28.3281 14.0438 28.3281C14.1094 28.339 14.1422 28.339 14.1641 28.3609C14.175 28.3828 14.175 28.4265 14.1422 28.5031ZM14.0984 28.0656C14.0438 28.0656 13.9891 28.0656 13.9125 28.0546H13.8578C13.7266 28.0437 13.4969 28.0328 13.4203 27.9343C13.3438 27.8468 13.3875 27.7593 13.4422 27.6609L13.475 27.5953C13.486 27.5734 13.4969 27.5515 13.5078 27.5187C13.5516 27.4093 13.5844 27.3437 13.661 27.3437C13.6938 27.3437 13.7266 27.3546 13.7703 27.3765C13.825 27.4093 13.8797 27.4421 13.9344 27.464C14.011 27.5187 14.0875 27.5624 14.1969 27.5953C14.2953 27.6281 14.3938 27.6499 14.4922 27.6718L14.6234 27.7046C14.4594 27.9781 14.35 28.0656 14.0984 28.0656ZM14.7219 27.4312C14.7 27.4421 14.6672 27.4531 14.6344 27.4531C14.5359 27.4531 14.4047 27.4093 14.3172 27.3765C14.2953 27.3656 14.2734 27.3656 14.2625 27.3546L14.2297 27.3437C14.1094 27.2999 13.8578 27.2124 13.8031 27.1249C13.7594 27.0374 13.836 26.9171 13.8797 26.8187C13.8906 26.7968 13.9016 26.7859 13.9125 26.764C14.1531 26.3046 14.4047 25.8234 14.6453 25.3749C15.225 24.2921 15.8156 23.1656 16.3625 22.0499C17.4891 19.7749 18.6813 17.4671 19.8297 15.2468C20.3109 14.3062 20.8141 13.3437 21.3063 12.3812C21.5359 11.9328 21.7766 11.4624 22.0063 11.0249C22.6078 9.87651 23.2313 8.68432 23.7781 7.49213C23.9641 7.09838 24.1609 6.71557 24.3578 6.33276C24.5547 5.94995 24.7625 5.5562 24.9485 5.15151C24.9594 5.1187 24.9922 5.06401 25.0141 4.98745C25.1125 4.72495 25.2984 4.2437 25.4734 4.2437H25.4953C25.561 4.25463 25.6266 4.3312 25.7031 4.39682C25.7578 4.45151 25.8235 4.5062 25.8672 4.53901C25.9547 4.5937 26.0531 4.60463 26.1406 4.62651C26.2063 4.63745 26.2828 4.65932 26.3484 4.6812C26.3375 4.82338 26.2391 4.98745 26.1516 5.12963C26.1078 5.19526 26.075 5.24995 26.0531 5.30463C25.9438 5.52338 25.8344 5.74213 25.736 5.96088C25.55 6.38745 25.3313 6.80307 25.1125 7.20776L25.1016 7.22963C24.675 8.04995 24.2156 8.93589 23.7891 9.82182C23.0781 11.2874 22.3125 12.764 21.5688 14.1968C21.4047 14.5031 21.2516 14.8203 21.0875 15.1265C19.1516 18.8562 17.5766 21.8859 16.1328 24.6421C16.0344 24.839 15.925 25.0359 15.8266 25.2218C15.5422 25.7578 15.236 26.3046 15.0172 26.8843C15.0063 26.9062 15.0063 26.9281 14.9953 26.9499C14.9406 27.114 14.8422 27.3765 14.7219 27.4312ZM25.5938 6.85776C25.5828 7.09838 25.5063 7.36088 25.4297 7.61245C25.3969 7.72182 25.3641 7.82026 25.3422 7.9187C25.2438 8.30151 25.1453 8.69526 25.0359 9.07807C24.8172 9.8437 24.511 10.5984 24.2266 11.3312L24.0844 11.6921C23.5922 12.9499 23.0781 14.2515 22.4547 15.4765C21.8641 16.6359 21.1313 17.8499 20.1688 19.2937C19.7859 19.8624 19.4359 20.464 19.0859 21.0546C18.736 21.6453 18.375 22.2578 17.9813 22.8374C17.9047 22.9468 17.8391 23.0562 17.7625 23.1656C17.4672 23.6031 17.1609 24.0624 16.8766 24.5218C16.7125 24.7953 16.5156 25.0796 16.2859 25.3749C16.2422 25.4406 16.1875 25.5062 16.1438 25.5718C16.0344 25.7359 15.9141 25.9109 15.761 26.0203C15.7719 25.8999 15.8594 25.7468 15.9469 25.6265C15.9797 25.5828 16.0016 25.539 16.0234 25.4953L16.2859 25.0031C16.4938 24.6093 16.6797 24.2484 16.8547 23.9093L16.975 23.6687C17.3031 23.0343 17.6313 22.3781 17.9703 21.7328C18.6922 20.3546 19.4031 18.9437 20.0922 17.5874C20.6609 16.4718 21.2406 15.3124 21.8313 14.1859C22.4438 12.9937 23.0781 11.7359 23.7234 10.4562C23.9094 10.0843 24.0953 9.71245 24.2813 9.36245C24.4125 9.11088 24.5328 8.87026 24.6641 8.6187C24.8391 8.27963 25.0141 7.92964 25.1672 7.63432C25.2 7.55776 25.2438 7.4812 25.2766 7.40463C25.375 7.2187 25.4734 7.02182 25.5938 6.85776ZM23.8766 32.539C23.5047 32.2765 23.111 32.0468 22.7281 31.8281C22.6297 31.7734 22.5313 31.7187 22.4328 31.6531C22.2141 31.5218 21.9953 31.3687 21.7985 31.2265C21.6016 31.0843 21.3938 30.9421 21.1859 30.8218C20.1469 30.1984 19.2063 29.6953 18.2985 29.2906C17.8391 29.0828 17.3797 28.864 16.9094 28.6453C16.6906 28.5468 16.4609 28.4703 16.2422 28.3937C16.0781 28.339 15.9031 28.2734 15.7281 28.2078C15.6844 28.1859 15.6078 28.164 15.5094 28.1421C15.3016 28.0874 15.0281 28.0109 14.9844 27.9343C14.9406 27.8578 15.0938 27.7156 15.1922 27.6171L15.2906 27.5187C15.4438 27.3109 15.5969 27.0921 15.7281 26.8843C15.8375 26.7203 15.936 26.5562 16.0563 26.4031C16.1656 26.2499 16.2859 26.0968 16.3953 25.9437C16.5594 25.7249 16.7234 25.5062 16.8766 25.2874C17.0188 25.0796 17.15 24.8609 17.2813 24.6421C17.3906 24.4671 17.5 24.2703 17.6094 24.0953C17.7188 23.9203 17.8391 23.7453 17.9594 23.5812C18.1344 23.3296 18.3094 23.0671 18.4734 22.8046C18.5938 22.6078 18.7141 22.4109 18.8235 22.214C18.9438 22.0062 19.075 21.7765 19.2063 21.5687C19.3813 21.2953 19.5672 21.0109 19.7313 20.7374C20.0594 20.2124 20.4094 19.6656 20.7594 19.1406C20.9016 18.9328 21.0328 18.714 21.1531 18.4953C21.2844 18.2656 21.4266 18.0249 21.5797 17.8062C21.5578 17.7624 21.8969 17.2593 21.9188 17.2046C21.9625 17.0843 22.0391 16.9749 22.1156 16.8656C22.1594 16.789 22.2141 16.7234 22.2578 16.6468C22.3672 16.4609 22.4656 16.264 22.5641 16.0671L22.5859 16.0234C23.3953 14.4374 24.1391 12.6765 24.9156 10.4671C25.2547 9.50463 25.5391 8.5312 25.7906 7.47026C25.8563 7.2187 25.9109 6.9562 25.9766 6.70463C26.0422 6.4312 26.1078 6.14682 26.1735 5.87338C26.25 5.53432 26.3813 5.26088 26.5125 4.96557C26.5672 4.8562 26.611 4.74682 26.6656 4.62651C26.7531 4.69213 26.8188 4.81245 26.8844 4.92182C26.9281 4.98745 26.9609 5.06401 27.0047 5.12963C27.1578 5.33745 27.3109 5.53432 27.4203 5.68745C27.6828 6.05932 28.0438 6.44213 28.5141 6.84682C28.8531 7.14213 29.2141 7.3937 29.575 7.63432C29.6625 7.68901 29.75 7.75463 29.8375 7.80932C29.9688 7.89682 30.1 8.0062 30.2313 8.10463C30.5266 8.33432 30.8328 8.56401 31.1828 8.71713C31.4344 8.82651 31.675 8.99057 31.9047 9.1437C32.0578 9.24214 32.2109 9.34057 32.3641 9.42807L32.4844 9.4937C32.8891 9.72338 33.3156 9.96401 33.7531 10.1499C33.8516 10.1937 33.9609 10.2374 34.0594 10.2812C34.4094 10.4234 34.7375 10.5546 35.0547 10.7515C35.3281 10.9265 35.6235 11.0796 35.9078 11.2328C36.05 11.3093 36.2031 11.3968 36.3563 11.4734C37.1656 11.9328 38.1063 12.4906 38.861 13.2124C39.2328 13.5734 39.5719 13.8906 39.8016 14.2843C39.8891 14.4156 39.9547 14.5687 40.0094 14.7109C40.0422 14.7874 40.075 14.8749 40.1188 14.9515C40.1516 15.0171 40.1844 15.0718 40.2172 15.1374C40.2938 15.2796 40.3703 15.4218 40.4141 15.5749C40.425 15.6187 40.436 15.6515 40.4469 15.6953C40.5563 16.1109 40.6766 16.5265 40.5563 16.9421C40.436 17.3468 40.2281 17.7296 40.0203 18.0906C39.9766 18.1781 39.9219 18.2546 39.8781 18.3421C39.3203 19.3484 38.85 20.1906 38.3141 21.0218C38.2266 21.1531 38.1391 21.2734 38.0516 21.4046C37.986 21.4921 37.9313 21.5796 37.8656 21.6671C37.8 21.7656 37.7563 21.8749 37.7016 21.9843C37.6688 22.0499 37.6359 22.1265 37.6031 22.1921C37.4938 22.3999 37.3625 22.6187 37.2422 22.8156C37.1219 23.0234 36.9906 23.2421 36.8703 23.4609C36.6297 23.9203 36.4 24.3687 36.1375 24.8718L36.0063 25.1343C35.8641 25.4296 35.4266 26.2609 35.175 26.4578C35.1422 26.5124 35.0984 26.5671 35.0547 26.6218C35.0219 26.6546 35 26.6984 34.9781 26.7312C34.7485 27.0812 34.5188 27.4312 34.311 27.7812L34.2016 27.9562C33.95 28.3718 33.6547 28.7656 33.3703 29.1484C33.1078 29.5093 32.8344 29.8812 32.5938 30.264C32.3969 30.5703 32.2109 30.8875 32.0359 31.1937C31.7078 31.7406 31.3797 32.3203 30.9969 32.8343C30.7781 33.1296 30.5594 33.4359 30.3406 33.7312C30.0235 34.1687 29.7063 34.6281 29.3563 35.0546C29.1266 35.3499 28.8531 35.6124 28.6016 35.875C28.5141 35.9624 28.4266 36.0609 28.3391 36.1484C28.1531 36.3343 28 36.5093 27.8578 36.6734C27.825 36.7062 27.8031 36.739 27.7703 36.7828C27.6938 36.8812 27.6063 37.0015 27.4969 37.0562C27.4641 36.9687 27.5078 36.8375 27.5516 36.7062C27.5953 36.5968 27.6281 36.4874 27.6281 36.3999C27.6063 36.1812 27.4859 35.9953 27.3656 35.8203C27.3438 35.7984 27.3328 35.7656 27.3109 35.7437C27.0047 35.2734 26.6985 34.9015 26.3266 34.5625C25.5391 33.7968 24.7297 33.1406 23.8766 32.539ZM25.8672 34.475L26.0969 34.7046C26.425 35.0328 26.7422 35.339 26.9719 35.7437C27.0047 35.7984 27.0375 35.8531 27.0813 35.9078C27.2016 36.0828 27.3219 36.2687 27.3219 36.4765C27.3219 36.7281 27.1797 36.9687 27.0594 37.1875L27.0375 37.2312C26.9172 37.439 26.7859 37.6796 26.6 37.8109C26.3813 37.975 26.0531 38.0406 25.7797 38.0734C25.6922 38.0843 25.5938 38.0953 25.4953 38.0953C25.025 38.0953 24.5328 37.964 24.0844 37.7015C24.9156 36.914 25.5172 35.8312 25.8672 34.475ZM55.1688 33.9499C55.0813 33.9499 54.9938 33.95 54.9281 33.9609C54.8188 33.9828 54.7094 34.0046 54.611 34.0265C54.4906 34.0593 54.3703 34.0812 54.25 34.1031C54.1188 34.125 53.9766 34.1468 53.8453 34.1578C53.4844 34.2015 53.1453 34.2453 52.8063 34.3874C52.0516 34.7046 51.3078 35.2515 50.4656 36.0937C49.7219 36.8484 49.1203 37.7999 48.7266 38.4562C48.486 38.85 48.3438 39.2875 48.1906 39.714C48.1688 39.7796 48.1469 39.8453 48.125 39.8999C48.0485 40.1296 47.961 40.3703 47.8735 40.6109C47.8516 40.6546 47.8406 40.7203 47.8297 40.7859C47.7969 40.9281 47.5672 42.2187 47.5016 42.2953C47.4906 42.3281 47.4797 42.3499 47.4688 42.3828C47.3156 42.864 47.1078 43.3125 46.8344 43.7171C46.5172 44.2093 46.1125 44.6578 45.7297 45.0843C45.4016 45.4453 45.0735 45.8281 44.7781 46.2218C44.111 47.1406 43.5313 48.0484 43.0063 48.989C42.8422 49.2843 42.7 49.5906 42.5688 49.8859L42.3391 50.3781C42.2297 50.5968 42.1203 50.8265 42 51.0453C41.8578 51.3187 41.7156 51.5921 41.5844 51.8656C41.5625 51.8984 41.5516 51.9421 41.5406 51.9859C41.5078 52.0843 41.4641 52.1828 41.4094 52.1828C41.3766 52.1828 41.3328 52.1499 41.2891 52.0953C41.1906 51.964 41.1031 51.8218 41.0156 51.6796C40.9719 51.6031 40.9172 51.5265 40.8625 51.45C40.7203 51.2421 40.5891 51.0234 40.4688 50.8156C40.3047 50.5531 40.1406 50.2796 39.9656 50.0281C39.375 49.1859 38.6969 48.2343 37.9313 47.4031L37.5375 46.9765C37.2969 46.714 37.0453 46.4296 36.7828 46.1671C36.5531 45.9265 36.3016 45.7078 36.05 45.489C35.886 45.3359 35.711 45.1828 35.5469 45.0296C34.7047 44.2312 33.7531 43.6625 32.8563 43.1593C32.1453 42.7656 31.3469 42.5468 30.5594 42.3281C30.2641 42.2406 29.9469 42.1531 29.6516 42.0656C28.4485 41.6828 27.4969 41.2562 26.6438 40.7093C26.5781 40.6656 26.5234 40.6328 26.4578 40.589C26.0641 40.3375 25.6703 40.0859 25.3531 39.7578C24.9922 39.375 24.6422 38.8937 24.3688 38.4234C24.3141 38.3249 24.2922 38.2703 24.3031 38.2374C24.3031 38.2374 24.3141 38.2265 24.3469 38.2265C24.3906 38.2265 24.4672 38.2484 24.5438 38.2703L24.5766 38.2812C24.8609 38.3687 25.1344 38.4125 25.386 38.4125H25.4625C25.7469 38.4125 26.0422 38.3578 26.3156 38.2703C26.3813 38.2484 26.4469 38.2265 26.5234 38.2156C26.6766 38.1828 26.8297 38.139 26.9391 38.0734C27.0813 37.9859 27.2125 37.8437 27.3328 37.7015C27.3875 37.6359 27.4422 37.5703 27.5078 37.5156C27.7266 37.2968 27.9016 37.1218 28.0875 36.9249C28.361 36.6296 28.6453 36.3234 28.9188 36.039L29.1594 35.7875C29.7172 35.1968 30.1875 34.5296 30.6469 33.8843C30.811 33.6546 30.986 33.414 31.15 33.1843C31.4891 32.7249 31.7953 32.2109 32.0688 31.7624L32.2656 31.4343C32.3641 31.2812 32.4516 31.1171 32.55 30.964C32.5719 30.9312 32.5828 30.8984 32.6047 30.8656C32.7141 30.625 33.3922 29.6296 33.5672 29.4109C33.6547 29.3124 33.7313 29.214 33.8078 29.1156C34.0485 28.7875 34.2781 28.4374 34.4969 28.0984L34.5078 28.0765C34.6172 27.9015 34.7375 27.7156 34.8469 27.5406C35.186 27.0046 35.5359 26.4468 35.9188 25.9218C36.0938 25.6921 36.225 25.4187 36.3453 25.1671C36.4 25.0578 36.4547 24.9374 36.5203 24.8281C36.5641 24.7515 36.6078 24.664 36.6516 24.5874C36.8266 24.2703 37.0016 23.9421 37.1547 23.614C37.5922 22.7281 37.9969 22.0171 38.4125 21.3828L38.5766 21.1203C38.6531 20.989 38.7297 20.8578 38.8172 20.7374C38.8719 20.6499 38.9156 20.6062 38.9485 20.6062C38.9703 20.6062 39.0141 20.6499 39.0688 20.7265C39.2656 21.0109 39.5172 21.339 39.8235 21.6562C39.9 21.7328 39.9656 21.8093 40.0422 21.8859C40.2391 22.1046 40.4469 22.3234 40.6656 22.5312C40.9172 22.7609 41.2234 22.9468 41.5078 23.1328C41.5625 23.1656 41.6063 23.1984 41.6609 23.2312C42.2406 23.5921 43.0172 24.0406 43.9031 24.3468C44.3735 24.4999 44.8219 24.7187 45.2594 24.9265C45.5766 25.0796 45.9156 25.2328 46.2547 25.3749C46.4078 25.4406 46.561 25.4953 46.7141 25.5499C47.3703 25.8015 48.0375 26.064 48.6719 26.4249C49.2406 26.7531 49.711 27.1468 50.2031 27.5734C50.3563 27.7046 50.5203 27.8468 50.6844 27.9781C51.1219 28.339 51.5485 28.7328 51.9531 29.1046C52.1719 29.3015 52.3906 29.5093 52.6203 29.7062C53.2547 30.275 53.7797 30.9531 54.25 31.5874C54.5016 31.9374 54.7313 32.3093 54.95 32.6703L54.9938 32.7359C55.0375 32.8015 55.0922 32.889 55.1578 32.9765C55.3656 33.2609 55.6172 33.6218 55.5953 33.8953C55.475 33.939 55.3219 33.9499 55.1688 33.9499Z" fill="white" fill-opacity="0.44"/>
</g>
<defs>
<clipPath id="clip0_18280_486">
<rect width="56" height="56" fill="white"/>
</clipPath>
</defs>
</svg>
